<?xml version="1.0" standalone="no"?>
<!DOCTYPE svg PUBLIC "-//W3C//DTD SVG 1.1//EN" "http://www.w3.org/Graphics/SVG/1.1/DTD/svg11.dtd" >
<!--
2013-9-30: Created.
-->
<svg>
<metadata>
Created by iconfont
</metadata>
<defs>

<font id="iconfont" horiz-adv-x="1024" >
  <font-face
    font-family="iconfont"
    font-weight="500"
    font-stretch="normal"
    units-per-em="1024"
    ascent="896"
    descent="-128"
  />
    <missing-glyph />
    
    <glyph glyph-name="x" unicode="x" horiz-adv-x="1001"
d="M281 543q-27 -1 -53 -1h-83q-18 0 -36.5 -6t-32.5 -18.5t-23 -32t-9 -45.5v-76h912v41q0 16 -0.5 30t-0.5 18q0 13 -5 29t-17 29.5t-31.5 22.5t-49.5 9h-133v-97h-438v97zM955 310v-52q0 -23 0.5 -52t0.5 -58t-10.5 -47.5t-26 -30t-33 -16t-31.5 -4.5q-14 -1 -29.5 -0.5
t-29.5 0.5h-32l-45 128h-439l-44 -128h-29h-34q-20 0 -45 1q-25 0 -41 9.5t-25.5 23t-13.5 29.5t-4 30v167h911zM163 247q-12 0 -21 -8.5t-9 -21.5t9 -21.5t21 -8.5q13 0 22 8.5t9 21.5t-9 21.5t-22 8.5zM316 123q-8 -26 -14 -48q-5 -19 -10.5 -37t-7.5 -25t-3 -15t1 -14.5
t9.5 -10.5t21.5 -4h37h67h81h80h64h36q23 0 34 12t2 38q-5 13 -9.5 30.5t-9.5 34.5q-5 19 -11 39h-368zM336 498v228q0 11 2.5 23t10 21.5t20.5 15.5t34 6h188q31 0 51.5 -14.5t20.5 -52.5v-227h-327z" />
    

    
    <glyph glyph-name="jia" unicode="&#58961;" d="M759.193 334.562h-197.754v-197.754c0-27.29-22.148-49.438-49.438-49.438-27.339 0-49.438 22.148-49.438 49.438v197.754h-197.754c-27.339 0-49.438 22.148-49.438 49.438s22.099 49.438 49.438 49.438h197.754v197.754c0 27.29 22.099 49.438 49.438 49.438 27.29 0 49.438-22.148 49.438-49.438v-197.754h197.754c27.29 0 49.438-22.148 49.438-49.438s-22.148-49.438-49.438-49.438z"  horiz-adv-x="1024" />

    
    <glyph glyph-name="chazhaobiaodanliebiao" unicode="&#59242;" d="M96.256 259.968l192 0c17.664 0 32 14.336 32 32s-14.336 32-32 32l-192 0c-17.664 0-32-14.336-32-32S78.592 259.968 96.256 259.968zM1015.04-7.424l-110.208 110.208c34.112 43.52 55.36 97.6 55.36 157.248 0 141.376-114.624 256-256 256s-256-114.624-256-256 114.624-256 256-256c59.648 0 113.728 21.248 157.248 55.36l110.208-110.208c12.032-11.968 31.36-11.968 43.392 0C1027.008-38.784 1027.008-19.456 1015.04-7.424zM841.408 125.952c-0.576-0.512-1.344-0.704-1.856-1.28s-0.768-1.344-1.28-1.856c-34.624-33.792-81.792-54.784-134.08-54.784-106.048 0-192 85.952-192 192s85.952 192 192 192 192-85.952 192-192C896.256 207.744 875.264 160.576 841.408 125.952zM96.256 643.968l576 0c17.664 0 32 14.336 32 32s-14.336 32-32 32l-576 0c-17.664 0-32-14.336-32-32S78.592 643.968 96.256 643.968zM352.256 515.968l-256 0c-17.664 0-32-14.336-32-32s14.336-32 32-32l256 0c17.664 0 32 14.336 32 32S369.92 515.968 352.256 515.968zM352.256 131.968l-256 0c-17.664 0-32-14.336-32-32s14.336-32 32-32l256 0c17.664 0 32 14.336 32 32S369.92 131.968 352.256 131.968z"  horiz-adv-x="1025" />

    
    <glyph glyph-name="xingxing" unicode="&#58966;" d="M828.344878-103.535819 511.838318 62.860932 195.331757-103.535819l60.44772 352.434841L-0.279363 498.494661 353.586061 549.914774 511.838318 870.570841l158.25328-320.656067 353.8644-51.41909L767.898181 248.899022 828.344878-103.535819zM511.838318 124.361635l244.208954-128.388089-46.64025 271.930319 197.569728 192.582133-273.034467 39.673581L511.838318 747.570459 389.734352 500.15958l-273.034467-39.673581 197.568704-192.582133-46.64025-271.930319L511.838318 124.361635z"  horiz-adv-x="1040" />

    
    <glyph glyph-name="wode" unicode="&#58880;" d="M955.875 137.452c-33.599 151.47-220.281 261.399-443.863 261.399s-410.264-109.929-443.863-261.399l-0.918-198.866h889.538v185.020l-0.893 13.846zM880.538 14.818h-737.075v109.954c28.164 113.057 185.516 197.849 368.55 197.849s340.385-84.793 368.525-197.849v-109.954zM512.012 448.208c105.090 0 190.603 85.512 190.603 190.603s-85.513 190.603-190.603 190.603-190.603-85.512-190.603-190.603 85.513-190.603 190.603-190.603zM512.012 753.183c63.054 0 114.372-51.317 114.372-114.372s-51.317-114.372-114.372-114.372-114.372 51.318-114.372 114.372 51.318 114.372 114.372 114.372z"  horiz-adv-x="1024" />

    
    <glyph glyph-name="wodexuanzhong" unicode="&#58881;" d="M958.062 122.893v-185.602l-892.124 0 0.896 199.439c33.696 151.906 220.891 262.153 445.167 262.153 224.176 0 411.42-110.246 445.167-262.102l0.894-13.887zM512 448.406c105.369 0 191.127 85.758 191.127 191.127 0 105.419-85.758 191.177-191.127 191.177-105.418 0-191.177-85.758-191.177-191.177 0-105.369 85.758-191.127 191.177-191.127z"  horiz-adv-x="1024" />

    
    <glyph glyph-name="dingwei" unicode="&#58882;" d="M872.295 472.122c0-81.637-27.284-158.697-78.947-222.831-11.582-14.379-32.533-16.549-46.848-5.053-14.315 11.539-16.57 32.511-5.032 46.826 41.989 52.183 64.199 114.777 64.199 181.059 0 162.58-131.738 294.861-293.667 294.861s-293.667-132.282-293.667-294.862c0-72.267 26.634-142.279 75-197.108l213.332-270.851c1.821-2.255 4.295-3.102 4.208-3.145 0.607 0 2.255 0.672 4.295 3.253l87.58 111.589c11.278 14.424 32.186 17.069 46.761 5.639 14.488-11.343 17.004-32.295 5.639-46.761l-87.667-111.741c-14.445-18.24-35.049-28.608-56.608-28.608-0.043 0-0.087 0-0.13 0-21.559 0.021-42.119 10.433-56.391 28.542l-212.161 269.441c-57.953 65.587-90.486 151.236-90.486 239.748 0 199.321 161.625 361.488 360.296 361.488s360.295-162.167 360.295-361.488zM512 669.881c108.748 0 197.195-88.707 197.195-197.759s-88.447-197.759-197.195-197.759-197.195 88.707-197.195 197.759 88.447 197.759 197.195 197.759zM512 603.253c-72.007 0-130.567-58.821-130.567-131.131s58.56-131.131 130.567-131.131 130.567 58.821 130.567 131.131-58.56 131.131-130.567 131.131z"  horiz-adv-x="1024" />

    
    <glyph glyph-name="dingzhi" unicode="&#58883;" d="M922.149 259.184l-144.361 144.285 104.781 103.98-0.092 0.092 20.621 20.621c46.492 46.465 52.667 119.291 14.777 173.118-8.654 12.216-25.436 15.066-37.679 6.517-12.191-8.602-15.093-25.463-6.544-37.653 22.797-32.297 19.103-75.939-8.761-103.776l-11.768-11.768-176.363 176.39 11.768 11.795c19.156 19.077 46.44 27.204 72.983 22.19 14.249-2.691 28.813 6.676 31.716 21.346 2.85 14.645-6.755 28.84-21.373 31.69-44.434 8.655-89.765-5.224-121.534-37.046l-20.607-20.607-0.079 0.079-20.584-20.742-8.704-8.704 0.033-0.033-74.738-75.315-138.441 138.464c-52.719 52.719-138.474 52.667-191.087 0l-133.724-133.725 95.484-95.494c0 0 0.019-0.036 0.033-0.049l0.049-0.033 76.348-76.358c0 0 0.010-0.016 0.016-0.024l0.024-0.016 62.908-62.911-158.184-159.4v-249.189h249.189l159.397 158.184 240.719-240.719 133.777 133.724c52.613 52.668 52.613 138.423-0.001 191.088zM394.381 99.124l-173.098 173.098 408.458 411.644 176.311-176.258-411.67-408.484zM291.637 507.529l95.563 95.543c10.554 10.554 10.554 27.653 0 38.207-10.554 10.554-27.653 10.554-38.207 0l-95.563-95.54-38.207 38.216 57.304 57.324c10.554 10.554 10.554 27.653 0 38.207-10.554 10.554-27.653 10.554-38.207 0l-57.304-57.324-38.213 38.22 95.517 95.517c31.61 31.558 82.957 31.663 114.674 0l138.585-138.609-152.269-153.442-43.673 43.679zM193.106 223.986l153.039-153.039h-153.039v153.039zM883.943 106.304l-95.57-95.517-38.207 38.207 95.517 95.517c10.554 10.554 10.554 27.653 0 38.207-10.554 10.554-27.653 10.554-38.207 0l-95.517-95.517-38.207 38.207 57.31 57.31c10.554 10.554 10.554 27.653 0 38.207-10.554 10.554-27.653 10.554-38.207 0l-57.31-57.31-49.536 49.536 153.427 152.257 144.506-144.43c31.559-31.611 31.559-83.064 0.001-114.674z"  horiz-adv-x="1024" />

    
    <glyph glyph-name="jilu" unicode="&#58884;" d="M269.097 601.19c0 19.408 15.747 35.155 35.155 35.155l210.517 0c19.409 0 35.155-15.747 35.155-35.155s-15.746-35.155-35.155-35.155l-210.517-0c-19.408 0-35.155 15.746-35.155 35.155zM725.333 467.916h-421.081c-19.408 0-35.155-15.747-35.155-35.155 0-19.408 15.747-35.155 35.155-35.155h421.081c19.408 0 35.155 15.747 35.155 35.155s-15.747 35.155-35.155 35.155zM725.333 341.579h-421.081c-19.408 0-35.155-15.747-35.155-35.155s15.747-35.155 35.155-35.155h421.081c19.408 0 35.155 15.747 35.155 35.155s-15.747 35.155-35.155 35.155zM851.67 468.534c19.408 0 35.155 15.747 35.155 35.155v210.541c0 65.824-53.557 119.38-119.38 119.38h-510.891c-65.824 0-119.38-53.557-119.38-119.38v-660.483c0-65.824 53.557-119.357 119.38-119.357h510.891c65.824 0 119.38 53.533 119.38 119.357v281.491c0 19.408-15.747 35.155-35.155 35.155-19.408 0-35.155-15.747-35.155-35.155v-281.491c0-27.053-22.017-49.047-49.071-49.047h-510.891c-27.053 0-49.071 21.995-49.071 49.047v660.483c0 27.053 22.017 49.071 49.071 49.071h510.891c27.053 0 49.071-22.017 49.071-49.071v-210.54c0-19.409 15.747-35.156 35.155-35.156z"  horiz-adv-x="1024" />

    
    <glyph glyph-name="jiaofei" unicode="&#58885;" d="M551.936 425.498v-53.027h104.796c19.285 0 34.932-15.492 34.932-34.586 0-19.094-15.646-34.586-34.932-34.586l-104.796 0v-149.87c0-19.094-15.646-34.586-34.932-34.586-19.285 0-34.932 15.492-34.932 34.586l-0 149.871h-104.796c-19.285 0-34.932 15.492-34.932 34.586 0 19.094 15.646 34.586 34.932 34.586h104.796v53.027l-104.796 0c-19.285 0-34.932 15.492-34.932 34.586s15.646 34.586 34.932 34.586h48.091l-33.627 59.039c-9.483 16.617-3.525 37.715 13.281 47.105 16.716 9.345 38.116 3.536 47.577-13.149l52.466-92.115c0.16-0.278 0.139-0.597 0.29-0.878h19.18l55.51 93.533c9.802 16.46 31.293 21.909 47.804 12.294 16.647-9.66 22.197-30.87 12.417-47.33l-34.719-58.498h51.184c19.285 0 34.932-15.492 34.932-34.586s-15.646-34.586-34.932-34.586l-104.795 0zM933.843 332.303c-18.785 3.828-37.388-8.016-41.345-26.749-37.070-175-195.196-301.993-375.995-301.993-211.865 0-384.249 170.675-384.249 380.44s172.385 380.44 384.249 380.44c180.8 0 338.925-127.016 375.994-301.992 3.957-18.711 22.56-30.78 41.345-26.749 18.876 3.918 30.974 22.247 27.017 40.935-43.8 206.837-230.672 356.976-444.356 356.976-250.39 0-454.114-201.703-454.114-449.61s203.723-449.61 454.114-449.61c213.685 0 400.556 150.141 444.357 356.932 3.957 18.734-8.141 37.062-27.017 40.98z"  horiz-adv-x="1024" />

    
    <glyph glyph-name="jiaofeijilu" unicode="&#58886;" d="M547.177 448.495v-53.899h105.462c19.408 0 35.154-15.746 35.154-35.154 0-19.408-15.746-35.154-35.154-35.154h-105.462v-152.334c0-19.408-15.746-35.154-35.154-35.154-19.408 0-35.154 15.746-35.154 35.154l-0 152.334h-105.462c-19.408 0-35.154 15.746-35.154 35.154 0 19.408 15.746 35.154 35.154 35.154h105.462l-0 53.899h-105.462c-19.408 0-35.154 15.746-35.154 35.154s15.746 35.154 35.154 35.154h48.383l-33.826 60.009c-9.521 16.913-3.57 38.359 13.365 47.879 17.028 9.521 38.359 3.502 47.879-13.365l52.777-93.629c0.161-0.283 0.137-0.607 0.289-0.892h19.305l55.887 95.071c9.795 16.73 31.355 22.383 48.108 12.497 16.754-9.841 22.338-31.378 12.497-48.108l-34.954-59.46h51.523c19.408 0 35.154-15.746 35.154-35.154s-15.746-35.154-35.154-35.154h-105.463zM816.508 503.698v210.535c0 27.052-22.017 49.070-49.070 49.070h-510.877c-27.052 0-49.070-22.017-49.070-49.070v-660.465c0-27.052 22.017-49.070 49.070-49.070h372.459v137.549c0 19.408 15.746 35.154 35.154 35.154h152.334v157.851c0 19.408 15.746 35.154 35.154 35.154s35.154-15.746 35.154-35.154v-193.004c0-0.841-0.421-1.545-0.478-2.369-0.215-3.138-0.809-6.159-1.845-9.126-0.443-1.267-0.864-2.477-1.445-3.674-1.353-2.809-3.129-5.356-5.229-7.756-0.655-0.747-1.122-1.602-1.837-2.291-0.203-0.194-0.309-0.455-0.518-0.647l-187.488-172.703-0.169 0.183c-6.263-5.762-14.458-9.475-23.633-9.475l-407.613 0c-65.822 0-119.377 53.555-119.377 119.377l-0 660.465c0 65.822 53.555 119.377 119.377 119.377h510.878c65.822 0 119.377-53.555 119.377-119.377v-210.535c0-19.408-15.746-35.154-35.154-35.154s-35.155 15.746-35.155 35.154zM699.327 49.739l62.298 57.354h-62.298v-57.354z"  horiz-adv-x="1024" />

    
    <glyph glyph-name="menzhenjiaofei" unicode="&#58887;" d="M957.073 548.317l-46.153-76.153v-117.997c0-17.317-14.050-31.368-31.367-31.368s-31.368 14.050-31.368 31.368l-0 126.758c0 5.739 1.552 11.355 4.533 16.256l21.852 36.024-725.137 0 21.852-36.024c2.982-4.902 4.533-10.518 4.533-16.256l0-334.018c0-28.12 19.074-50.993 42.559-50.993h587.25c23.485 0 42.559 22.873 42.559 50.993v42.559c0 17.317 14.050 31.368 31.368 31.368s31.367-14.050 31.367-31.368v-42.559c0-62.715-47.215-113.729-105.295-113.729h-587.251c-58.080 0-105.295 51.014-105.295 113.729v325.258l-46.153 76.153c-5.882 9.679-6.045 21.79-0.49 31.654 5.555 9.864 16.011 15.97 27.324 15.97h125.472v94.106h241.616v-94.106h469.391c11.314 0 21.77-6.106 27.324-15.97 5.555-9.865 5.392-21.974-0.49-31.654zM512 178.641c17.317 0 31.368 14.050 31.368 31.368v73.192h73.192c17.317 0 31.368 14.050 31.368 31.368s-14.050 31.368-31.368 31.368h-73.192v73.192c0 17.317-14.050 31.367-31.368 31.367s-31.367-14.050-31.367-31.367v-73.192h-73.192c-17.317 0-31.368-14.050-31.368-31.368s14.050-31.368 31.368-31.368h73.192v-73.192c-0.001-17.317 14.050-31.368 31.367-31.368z"  horiz-adv-x="1024" />

    
    <glyph glyph-name="menzhenxuanzhong" unicode="&#58888;" d="M457.012 570.713v134.883h-259.739v-134.883l-134.883-0 54.47-89.922v-359.087c0-48.89 35.586-88.528 79.483-88.528h631.314c43.897 0 79.483 39.637 79.483 88.528v45.77l0 177.057v136.26l54.47 89.922h-504.598zM624.402 268.234h-78.682v-78.682c0-18.617-15.104-33.721-33.721-33.721-18.617 0-33.721 15.104-33.721 33.721v78.682h-78.682c-18.617 0-33.721 15.104-33.721 33.721 0 18.617 15.104 33.721 33.721 33.721h78.682v78.682c0 18.617 15.104 33.721 33.721 33.721 18.617 0 33.721-15.104 33.721-33.721v-78.682h78.682c18.617 0 33.721-15.104 33.721-33.721 0-18.617-15.104-33.721-33.721-33.721z"  horiz-adv-x="1024" />

    
    <glyph glyph-name="shoucang" unicode="&#58889;" d="M752.338 353.294l102.945 105.489-220.253 33.662c-11.393 1.733-21.165 9.051-26.074 19.477l-96.955 206.541-96.955-206.541c-4.909-10.425-14.68-17.743-26.074-19.477l-220.208-33.662 160.495-164.504c7.655-7.835 11.123-18.869 9.366-29.721l-37.512-230.026 194.134 107.357c10.448 5.764 23.056 5.764 33.504 0l194.136-107.312-14.5 88.759c-3.062 18.869 9.727 36.657 28.55 39.719 19.004 3.152 36.612-9.772 39.719-28.55l25.984-159.1c2.116-13.104-3.378-26.209-14.23-33.864-5.944-4.188-12.924-6.305-19.905-6.305-5.764 0-11.529 1.441-16.752 4.323l-239.751 132.529-239.753-132.53c-11.574-6.35-25.849-5.629-36.657 1.981-10.853 7.655-16.346 20.76-14.23 33.864l46.203 283.074-195.35 200.17c-9.051 9.276-12.159 22.853-8.016 35.147 4.098 12.294 14.725 21.233 27.56 23.192l268.529 41.047 120.417 256.528c11.348 24.273 51.247 24.273 62.596 0l120.417-256.528 268.529-41.047c12.834-1.959 23.462-10.898 27.56-23.192 4.143-12.294 1.036-25.871-8.016-35.147l-149.913-153.65c-13.33-13.735-35.215-13.915-48.905-0.63-13.691 13.33-13.961 35.238-0.631 48.927z"  horiz-adv-x="1024" />

    
    <glyph glyph-name="wodejiuzhenren" unicode="&#58890;" d="M961.61 175.678c0-3.664-0.827-90.175-72.814-136.96-5.564-3.619-12.065-5.541-18.701-5.541h-305.045c-18.947 0-34.319 15.372-34.319 34.319v78.155c0 78.021-46.294 149.025-117.902 180.886-11.283 5.049-18.992 15.729-20.221 28.018-1.206 12.244 4.267 24.265 14.344 31.369 34.519 24.398 55.142 63.944 55.142 105.77 0 71.496-58.159 129.632-129.654 129.632-71.497 0-129.654-58.136-129.654-129.632 0-41.826 20.623-81.372 55.142-105.77 10.076-7.105 15.55-19.126 14.344-31.369-1.229-12.289-8.937-22.968-20.221-28.018-71.608-31.861-117.902-102.866-117.902-180.886 0-4.335-0.804-8.579-2.413-12.601-0.625-2.1-3.821-15.372 9.072-31.235h243.11c18.947 0 34.319-15.372 34.319-34.319s-15.372-34.319-34.319-34.319h-257.387c-8.267 0-16.243 2.994-22.477 8.4-43.992 38.117-45.578 83.874-38.473 109.613 1.788 86.108 45.311 165.291 114.931 213.507-29.582 35.346-46.361 80.21-46.361 126.995 0 109.345 88.946 198.269 198.291 198.269s198.29-88.924 198.29-198.269c0-46.786-16.779-91.649-46.361-126.995 71.117-49.244 114.997-130.794 114.997-219.047v-43.836h259.532c33 27.482 34.073 73.596 34.073 74.088 0 92.231-75.361 169-167.994 170.922-15.818 0.357-29.359 11.44-32.799 26.901-3.419 15.461 4.178 31.235 18.365 38.206 52.55 25.873 85.192 77.797 85.192 135.531 0 83.561-67.988 151.572-151.573 151.572-36.753-1.027-85.997-7.641-99.2-15.818-16.020-10.010-37.245-5.005-47.233 11.126-9.987 16.086-5.005 37.268 11.126 47.233 35.167 21.762 111.736 25.471 134.368 26.096 122.371 0 221.148-98.799 221.148-220.209 0-55.99-20.98-108.183-57.465-147.864 90.176-34.767 154.701-122.619 154.701-223.92z"  horiz-adv-x="1024" />

    
    <glyph glyph-name="baogao" unicode="&#58891;" d="M833.84 297.616c17.815 0 32.268 14.453 32.268 32.268l0 503.727h-454.61v-6.657c-10.685 4.107-22.037 6.657-33.822 6.657-52.267 0-94.788-42.519-94.788-94.788v-33.571h-92.729c-17.815 0-32.268-14.453-32.268-32.268v-511.877c0-52.225 42.519-94.746 94.788-94.746h158.819v-64.998c0-17.815 14.453-32.268 32.268-32.268 0.722 0 1.326 0.362 2.035 0.409 1.205-0.136 2.274-0.704 3.51-0.704 1.303-0.63 4.664-4.328 6.933-6.764 9.495-10.335 25.42-27.647 55.461-27.647 29.999 0 45.923 17.31 55.461 27.647 2.227 2.436 5.63 6.135 8.992 6.764 1.303-0.63 4.663-4.328 6.933-6.764 9.495-10.335 25.42-27.647 55.418-27.647 30.041 0 45.965 17.31 55.503 27.605 2.227 2.478 5.63 6.177 9.16 6.806 1.261-0.63 4.706-4.37 6.975-6.806 9.537-10.335 25.504-27.605 55.545-27.605s45.965 17.268 55.503 27.605c2.269 2.436 5.714 6.177 8.109 6.849 1.026 0 1.893 0.491 2.894 0.585 0.575-0.032 1.061-0.334 1.643-0.334 17.815 0 32.268 14.453 32.268 32.268l0 153.694c0 17.815-14.453 32.268-32.268 32.268s-32.268-14.453-32.268-32.268v-128.074c-12.833-5.969-21.812-14.75-27.773-21.207-2.269-2.436-5.714-6.177-9.244-6.764-1.303 0.588-4.748 4.328-7.017 6.764-9.537 10.335-25.504 27.605-55.503 27.605-30.041 0-45.965-17.31-55.503-27.605-2.227-2.478-5.63-6.177-9.034-6.807-1.303 0.63-4.663 4.328-6.933 6.764-9.495 10.335-25.42 27.647-55.419 27.647s-45.923-17.31-55.461-27.647c-2.227-2.436-5.63-6.135-9.034-6.764-1.303 0.63-4.664 4.328-6.933 6.764-5.929 6.452-14.889 15.238-27.689 21.22l-0 742.121h325.537l-0-439.191c0.003-17.814 14.456-32.268 32.271-32.268zM282.888 161.107c0-16.638-13.571-30.209-30.209-30.209-16.68 0-30.251 13.571-30.251 30.209l0 479.609h60.461v-479.609zM411.498 130.897h-69.473c3.241 9.543 5.399 19.587 5.399 30.209l0 577.717c0 16.68 13.571 30.251 30.251 30.251 17.059 0 33.822-15.63 33.822-31.596v-606.581zM502.084 672.984c0 17.815 14.453 32.268 32.268 32.268h129.073c17.815 0 32.268-14.453 32.268-32.268s-14.453-32.268-32.268-32.268h-129.073c-17.815 0-32.268 14.454-32.268 32.268zM577.376 317.321c17.815 0 32.268-14.453 32.268-32.268s-14.453-32.268-32.268-32.268h-43.024c-17.815 0-32.268 14.453-32.268 32.268s14.453 32.268 32.268 32.268h43.024zM781.74 543.198c0-17.815-14.453-32.268-32.268-32.268h-215.12c-17.815 0-32.268 14.453-32.268 32.268 0 17.815 14.453 32.268 32.268 32.268h215.12c17.815 0 32.268-14.453 32.268-32.268zM749.473 381.857h-215.12c-17.815 0-32.268 14.453-32.268 32.268s14.453 32.268 32.268 32.268h215.12c17.815 0 32.268-14.453 32.268-32.268s-14.453-32.268-32.268-32.268z"  horiz-adv-x="1024" />

    
    <glyph glyph-name="gongpai" unicode="&#58892;" d="M729.147 509.473v83.648c0 28.836-23.444 52.281-52.281 52.281l-131.068-0v-20.912h10.456c17.317 0 31.368-14.050 31.368-31.368 0-17.317-14.050-31.368-31.368-31.368h-83.648c-17.317 0-31.368 14.050-31.368 31.368 0 17.317 14.050 31.368 31.368 31.368h10.456v20.912h-135.929c-28.836 0-52.281-23.444-52.281-52.281v-543.714c0-28.836 23.444-52.281 52.281-52.281h329.733c28.836 0 52.281 23.444 52.281 52.281l0 292.769c0 17.317 14.050 31.368 31.368 31.368 17.317 0 31.368-14.050 31.368-31.368v-292.769c0-63.431-51.586-115.017-115.017-115.017l-329.734 0c-63.431 0-115.017 51.586-115.017 115.017l0 543.714c0 63.431 51.586 115.017 115.017 115.017h135.929l-0 94.105c0 17.317 14.050 31.368 31.368 31.368 17.317 0 31.368-14.050 31.368-31.368v-94.104h131.068c63.431 0 115.017-51.586 115.017-115.017v-83.648c0-17.317-14.050-31.368-31.368-31.368-17.318-0.001-31.368 14.050-31.368 31.367zM388.958 394.456h125.473c17.317 0 31.368 14.050 31.368 31.368 0 17.317-14.050 31.368-31.368 31.368h-125.473c-17.317 0-31.368-14.050-31.368-31.368-0-17.318 14.050-31.368 31.368-31.368zM629.447 300.352c0 17.317-14.050 31.368-31.368 31.368l-209.121 0c-17.317 0-31.368-14.050-31.368-31.368 0-17.317 14.050-31.368 31.368-31.368h209.121c17.317-0 31.368 14.050 31.368 31.368zM472.606 206.248h-83.648c-17.317 0-31.368-14.050-31.368-31.368s14.050-31.368 31.368-31.368h125.473c17.317 0 31.368 14.050 31.368 31.368s-14.050 31.368-31.368 31.368h-41.825z"  horiz-adv-x="1024" />

    
    <glyph glyph-name="hunyin" unicode="&#58893;" d="M872.337 450.698c-37.948 19.213-86.629 18.607-131.22 0.173-10.731 42.795-35.742 84.249-77.801 105.495-22.63 11.423-47.922 17.438-73.172 17.438-61.791 0-117.481-34.185-145.326-89.311-47.187-93.422-14.993-173.257 19.104-257.722 20.359-50.454 41.41-102.596 50.194-164.992 1.536-10.904 8.373-20.337 18.26-25.184 4.63-2.293 9.65-3.419 14.648-3.419 5.691 0 11.38 1.472 16.465 4.371 54.673 31.199 110.493 45.911 164.473 60.147 87.927 23.15 170.964 45.002 216.203 134.53 40.415 80.050 8.201 178.102-71.829 218.474zM884.842 262.167c-31.761-62.829-94.439-79.315-173.798-100.215-43.271-11.423-91.043-23.972-139.528-45.868-11.813 50.973-29.727 95.369-45.954 135.568-31.956 79.143-55.019 136.347-21.419 202.898 16.465 32.583 49.415 52.79 86.001 52.79 15.102 0 29.641-3.462 43.206-10.342 34.076-17.178 48.464-63.392 47.447-99.091-0.39-12.852 6.728-24.795 18.238-30.636 11.51-5.798 25.314-4.501 35.461 3.505 33.016 25.876 78.667 35.439 107.875 20.597 47.318-23.886 66.379-81.826 42.471-129.207zM464.27 156.067c13.285-12.679 13.782-33.708 1.125-46.992-6.534-6.837-15.296-10.299-24.059-10.299-8.243 0-16.486 3.029-22.933 9.174-45.608 43.487-93.054 78.061-138.943 111.51-104.456 76.112-203.114 148.028-216.16 293.117-5.301 58.978 12.7 116.529 50.692 162.050s91.41 73.517 150.41 78.797c69.796 6.448 134.27-30.809 178.493-79.488 34.833 55.733 91.367 103.764 161.444 110.081 121.894 11.164 229.878-79.315 240.825-201.124 1.644-18.304-11.856-34.443-30.138-36.088-18.347-1.299-34.443 11.856-36.066 30.117-7.659 85.373-83.21 148.939-168.671 140.891-61.986-5.582-111.077-65.426-130.462-118.692-4.392-12.116-15.405-20.554-28.234-21.722-13.046-1.342-25.205 5.236-31.696 16.357-28.558 48.983-87.256 99.177-149.545 93.466-41.324-3.722-78.731-23.28-105.343-55.171s-39.225-72.219-35.504-113.5c10.342-115.1 89.225-172.608 189.095-245.39 45.413-33.061 96.885-70.577 145.673-117.093z"  horiz-adv-x="1024" />

    
    <glyph glyph-name="lianxiwomen" unicode="&#58894;" d="M877.409-65.622c-199.227 0-391.055 72.689-540.144 204.67-15.927 14.096-17.407 38.426-3.31 54.378 14.071 15.902 38.451 17.357 54.378 3.31 134.993-119.491 308.686-185.306 489.077-185.306 3.938 0 7.149 3.21 7.149 7.173l0 182.698c0 3.963-3.211 7.173-7.149 7.173l-182.7 0c-2.433 0-4.114-1.154-5.066-2.107l-56.711-63.759c-11.614-13.093-30.525-16.654-46.151-8.729-125.963 63.659-253.229 143.621-330.934 296.271-6.948 13.645-5.142 30.099 4.591 41.937l71.409 86.835c3.512 3.763 4.59 5.367 4.59 7.775l0 182.699c0 4.013-3.135 7.173-7.149 7.173h-182.698c-3.938 0-7.149-3.21-7.149-7.173 0-125.16 31.905-248.815 92.252-357.571 10.333-18.611 3.612-42.088-15-52.422-18.586-10.233-42.013-3.512-52.372 15-66.693 120.193-101.934 256.792-101.934 394.994 0 46.452 37.773 84.226 84.201 84.226h182.698c46.427 0 84.201-37.773 84.201-84.226v-182.698c0-22.574-8.779-43.743-24.731-59.595l-52.396-63.91c51.719-90.145 129.399-158.168 258.949-226.994l38.326 43.041c17.432 17.508 38.577 26.286 61.075 26.286h182.698c46.427 0 84.201-37.773 84.201-84.226v-182.698c0.001-46.453-37.773-84.226-84.2-84.226z"  horiz-adv-x="1024" />

    
    <glyph glyph-name="menzhenanpai" unicode="&#58895;" d="M885.435 395.4c-5.732 10.198-16.499 16.478-28.194 16.478h-87.19l-0.321 3.583c-14.41 81.274-82.104 147.097-169.963 174.064 30.549 25.371 50.443 63.139 50.443 105.855 0 76.238-61.993 138.231-138.21 138.231s-138.21-61.993-138.21-138.231c0-42.715 19.894-80.484 50.444-105.855-87.859-26.967-155.553-92.79-169.963-174.064-0.219-1.227 0.158-2.368 0.082-3.583h-87.593c-11.695 0-22.463-6.279-28.194-16.478-5.732-10.198-5.542-22.673 0.506-32.662l37.15-61.32v-266.686c0-55.334 41.891-100.344 93.39-100.344h484.779c51.5 0 93.39 45.009 93.39 100.344l-0 35.15c0 17.869-14.497 32.366-32.366 32.366s-32.366-14.497-32.366-32.366v-35.147c0-19.639-12.854-35.611-28.658-35.611h-484.78c-15.804 0-28.658 15.973-28.658 35.611l0 275.746c0 5.9-1.623 11.716-4.678 16.773l-12.054 19.892h575.557l-12.054-19.892c-3.056-5.057-4.678-10.873-4.678-16.773v-104.643c0-17.869 14.497-32.366 32.366-32.366s32.366 14.497 32.366 32.366v95.582l37.15 61.32c6.048 9.987 6.237 22.463 0.506 32.661zM512 768.878c40.521 0 73.477-32.957 73.477-73.499 0-40.5-32.957-73.456-73.477-73.456s-73.477 32.957-73.477 73.456c0 40.542 32.957 73.499 73.477 73.499zM512 538.141c94.397 0 175.333-54.645 191.73-126.263h-383.442c17.708 72.398 98.035 126.263 191.712 126.263zM479.634 86.824v53.944h-53.945c-17.869 0-32.366 14.497-32.366 32.366 0 17.869 14.497 32.366 32.366 32.366h53.944v53.944c0 17.869 14.497 32.366 32.366 32.366s32.366-14.497 32.366-32.366v-53.944h53.944c17.869 0 32.366-14.497 32.366-32.366s-14.497-32.366-32.366-32.366h-53.944v-53.944c0-17.869-14.497-32.366-32.366-32.366-17.868-0-32.365 14.497-32.365 32.366z"  horiz-adv-x="1024" />

    
    <glyph glyph-name="pingjia" unicode="&#58896;" d="M339.374 481.893c-42.825 0-116.426-24.255-116.426 0s73.6 77.618 116.426 77.618 77.618-50.328 77.618-77.618c-0.001-27.286-34.792 0-77.618 0zM809.405 479.909c0 24.255-73.6 77.618-116.426 77.618s-77.618-50.331-77.618-77.618c0-27.29 34.791 0 77.618 0s116.426-24.257 116.426 0zM933.64 334.411c-18.954 3.591-37.363-8.363-41.181-27.272-36.136-177.95-194.359-307.128-376.263-307.128-211.722 0-383.991 172.268-383.991 383.99s172.268 383.991 383.991 383.991c181.632 0 339.809-128.951 376.172-306.583 3.864-18.909 22.317-31.226 41.181-27.181 18.864 3.864 31.045 22.272 27.181 41.181-42.909 209.994-229.904 362.399-444.534 362.399-250.221 0-453.807-203.586-453.807-453.807s203.586-453.807 453.807-453.807c214.949 0 401.989 152.678 444.716 363.036 3.818 18.909-8.41 37.317-27.272 41.181zM516.176 97.755c111.818 0 202.466 90.645 202.466 202.466-175.824-39.959-404.936 0-404.936 0 0-111.821 90.649-202.466 202.469-202.466z"  horiz-adv-x="1024" />

    
    <glyph glyph-name="tijian" unicode="&#58897;" d="M327.544 713.594c0 50.938 41.292 92.228 92.228 92.228s92.228-41.289 92.228-92.228c0-50.935-41.292-92.228-92.228-92.228s-92.228 41.292-92.228 92.228zM834.797 840.407c-19.094 0-34.586-15.492-34.586-34.586v-46.114c0-19.094 15.492-34.586 34.586-34.586 19.094 0 34.586 15.492 34.586 34.586v46.114c0 19.094-15.492 34.586-34.586 34.586zM869.383 576.693v-600.921c0-19.094-15.492-34.586-34.586-34.586l-645.594 0c-19.094 0-34.586 15.492-34.586 34.586 0 19.094 15.492 34.586 34.586 34.586h138.341v504.010c-100.809 44.116-172.926 157.942-172.926 291.454 0 19.094 15.492 34.586 34.586 34.586s34.586-15.492 34.586-34.586c0-109 59.002-200.336 139.358-230.569h113.252c80.356 30.234 139.358 121.57 139.358 230.569 0 19.094 15.492 34.586 34.586 34.586 19.094 0 34.586-15.492 34.586-34.586 0-133.512-72.118-247.338-172.927-291.454v-504.010h288.212l0 103.756v462.579c0 19.094 15.492 34.586 34.586 34.586 19.092 0 34.584-15.491 34.584-34.586zM396.715 10.357h46.114v288.212h-46.114l0-288.212zM742.569 321.625c19.094 0 34.586 15.492 34.586 34.586v138.342c0 19.094-15.492 34.586-34.586 34.586-19.094 0-34.586-15.492-34.586-34.586v-138.342c0-19.094 15.492-34.586 34.586-34.586z"  horiz-adv-x="1024" />

    
    <glyph glyph-name="yimiao" unicode="&#58898;" d="M742.526 144.808c-2.209 4.8-5.084 9.143-8.292 13.196 35.145 31.693 47.721 83.422 26.834 128.527l-86.175 186.286c-7.046 15.156-24.92 21.731-40.155 14.723-15.117-7.008-21.731-24.998-14.723-40.155l86.175-186.247c5.669-12.164 6.22-25.864 1.575-38.501-4.646-12.637-13.936-22.675-26.179-28.345l-31.92-14.77c-0.258-0.116-0.536-0.15-0.795-0.268l-32.281-14.96c-0.214-0.098-0.384-0.251-0.598-0.352l-32.077-14.844c-12.085-5.629-25.825-6.26-38.501-1.575-12.637 4.646-22.715 13.936-28.345 26.14l-22.683 49.032 94.568 43.757c15.117 7.008 21.731 24.998 14.723 40.155-7.046 15.156-24.958 21.77-40.155 14.723l-94.533-43.739-25.402 54.908 94.543 43.711c15.156 7.008 21.77 24.958 14.763 40.116-7.046 15.196-25.077 21.81-40.116 14.763l-94.573-43.725-25.389 54.885 94.57 43.757c15.117 7.008 21.731 24.998 14.723 40.155-7.046 15.117-24.92 21.691-40.155 14.723l-94.536-43.742-21.165 45.75c-5.629 12.164-6.22 25.864-1.575 38.501s13.936 22.675 26.179 28.345l97.67 45.193c25.116 11.614 55.193 0.669 66.885-24.565l16.889-36.572c6.929-15.156 24.998-21.691 40.116-14.763 15.156 7.008 21.77 24.958 14.763 40.116l-16.889 36.612c-25.746 55.468-91.805 79.759-147.194 54.051l-21.356-9.881-25.384 54.864 45.718 21.155c15.117 7.008 21.731 24.998 14.723 40.155-7.046 15.156-24.958 21.691-40.155 14.723l-146.329-67.712c-15.117-7.008-21.731-24.998-14.723-40.155 5.118-11.023 16.023-17.518 27.439-17.518 4.252 0 8.582 0.906 12.716 2.795l45.718 21.155 25.384-54.86-21.421-9.913c-55.468-25.706-79.719-91.686-54.051-147.116l170.814-369.186c12.4-26.887 34.564-47.32 62.358-57.516 12.479-4.606 25.431-6.889 38.304-6.889 4.867 0 9.669 0.937 14.494 1.587 1.075-5.007 2.596-9.974 4.835-14.814l15.432-33.423c11.535-24.841 36.691-40.864 64.13-40.864 6.055 0 11.931 0.992 17.691 2.495l21.716-46.94c5.118-11.062 16.023-17.558 27.439-17.558 4.252 0 8.582 0.906 12.677 2.795 15.156 7.008 21.77 24.958 14.763 40.116l-21.682 46.869c11.726 8.171 20.739 19.637 25.776 33.401 6.496 17.715 5.748 36.887-2.165 53.933l-15.437 33.305zM652.493 62.649l-15.432 33.383c-2.251 4.889-0.039 10.86 4.771 13.22l32.916 15.233c1.161 0.463 2.36 0.797 3.609 0.797 3.031 0 7.283-1.535 9.291-5.866l15.432-33.344c1.496-3.229 0.827-6.181 0.275-7.677-0.552-1.456-1.929-4.173-5.196-5.669l-32.32-14.96c-4.054-1.968-10.392-1.338-13.345 4.882z"  horiz-adv-x="1024" />

    
    <glyph glyph-name="yuyueguahao" unicode="&#58899;" d="M489.96 239.226l58.408 58.408-58.408 58.409c-13.83 13.83-13.83 36.234 0 50.064s36.234 13.83 50.064 0l58.409-58.409 58.408 58.409c13.83 13.83 36.234 13.83 50.064 0s13.83-36.234 0-50.064l-58.408-58.409 58.408-58.408c13.83-13.83 13.83-36.234 0-50.064-6.916-6.916-15.95-10.372-25.032-10.372s-18.118 3.458-25.032 10.372l-58.408 58.408-58.409-58.408c-6.916-6.916-15.95-10.372-25.032-10.372s-18.118 3.458-25.032 10.372c-13.83 13.83-13.83 36.234 0 50.064zM923.67 389.235l-433.94 433.94c-7.008 7.008-16.55 11.064-26.692 10.326l-350.269-16.503c-8.664-0.395-16.366-4.056-22.301-9.577-0.346-0.317-0.83-0.418-1.165-0.749-1.211-1.219-1.798-2.85-2.815-4.212-1.593-2.138-3.342-4.15-4.426-6.624-1.049-2.374-1.297-4.978-1.801-7.546-0.335-1.695-1.106-3.218-1.193-4.991l-0.060-1.271c-0.003-0.135-0.078-0.254-0.078-0.389 0-0.084 0.049-0.159 0.049-0.243l-16.552-348.551c-0.462-9.958 3.274-19.638 10.326-26.692l233.727-233.589c13.876-13.83 36.28-13.83 50.064 0 13.83 13.83 13.83 36.234 0 50.064l-222.662 222.525 14.384 302.647 302.463 14.244 422.876-422.876c11.064-11.064 17.196-25.908 17.196-41.72 0-15.858-6.132-30.656-17.196-41.72l-233.267-233.313c-23.050-22.958-60.484-22.958-83.441 0l-101.604 101.512c-13.876 13.876-36.28 13.784-50.064 0-13.83-13.83-13.83-36.28 0-50.064l101.604-101.512c25.309-25.309 58.501-37.94 91.739-37.94s66.522 12.632 91.831 37.94l233.267 233.313c24.433 24.433 37.94 57.026 37.94 91.785-0.001 34.713-13.463 67.352-37.941 91.784z"  horiz-adv-x="1024" />

    
    <glyph glyph-name="zaixianquhao" unicode="&#58900;" d="M397.94 184.48v85.082c0 11.757 9.514 21.27 21.27 21.27s21.27-9.514 21.27-21.27v-85.082c0-11.757-9.514-21.27-21.27-21.27s-21.27 9.514-21.27 21.27zM504.293 163.209c11.757 0 21.27 9.514 21.27 21.27v170.165c0 11.757-9.514 21.27-21.27 21.27s-21.27-9.514-21.27-21.27v-170.165c-0-11.757 9.514-21.27 21.27-21.27zM589.375 163.209c11.757 0 21.27 9.514 21.27 21.27l-0 170.165c0 11.757-9.514 21.27-21.27 21.27s-21.27-9.514-21.27-21.27v-170.165c0-11.757 9.514-21.27 21.27-21.27zM774.953 535.444c17.615 0 31.906 14.291 31.906 31.906s-14.291 31.906-31.906 31.906h-127.624c-17.614 0-31.906-14.291-31.906-31.906s14.291-31.906 31.906-31.906h127.624zM961.61 694.973v-345.979c0-64.517-52.47-116.988-116.987-116.988h-54.007v-132.608c0-17.615-14.291-31.906-31.906-31.906-0.584 0-1.069 0.301-1.646 0.333-0.997-0.093-1.859-0.581-2.882-0.581-6.688 0-8.683-1.579-16.95-8.932-11.216-10.012-28.167-25.134-59.408-25.134s-48.192 15.122-59.408 25.134c-8.267 7.353-10.262 8.932-16.95 8.932-6.44 0-8.267-1.246-16.867-8.932-11.216-10.012-28.126-25.134-59.366-25.134s-48.15 15.163-59.325 25.175c-8.683 7.769-10.345 8.89-16.742 8.89-6.647 0-8.433-1.412-16.825-8.89-11.216-10.054-28.126-25.175-59.366-25.175-31.2 0-48.108 15.163-59.283 25.175-8.392 7.478-10.178 8.89-16.784 8.89-1.015 0-1.872 0.485-2.861 0.579-0.569-0.031-1.049-0.33-1.625-0.33-17.614 0-31.906 14.291-31.906 31.906l0 132.609h-81.136c-64.517 0-116.988 52.47-116.988 116.988l0 345.978c0 64.517 52.47 116.988 116.988 116.988h85.082c17.614 0 31.906-14.291 31.906-31.906s-14.291-31.906-31.906-31.906h-85.082c-29.33 0-53.176-23.846-53.176-53.176v-345.979c0-29.33 23.846-53.176 53.176-53.176h81.136l-0 175.813h530.101v-175.814h54.007c29.33 0 53.176 23.846 53.176 53.176v345.979c0 29.33-23.846 53.176-53.176 53.176h-409.998c-17.614 0-31.906 14.291-31.906 31.906s14.291 31.906 31.906 31.906h409.998c64.517 0.001 116.987-52.469 116.987-116.987zM726.803 407.821h-402.479v-281.822c14.462-5.281 24.646-13.616 31.906-20.12 8.683-7.769 10.345-8.89 16.742-8.89 6.647 0 8.433 1.412 16.825 8.89 11.216 10.054 28.126 25.175 59.366 25.175 31.2 0 48.108-15.163 59.283-25.175 8.392-7.478 10.178-8.89 16.784-8.89 6.647 0 8.433 1.412 16.825 8.89 11.216 10.054 28.167 25.175 59.408 25.175 31.242 0 48.192-15.122 59.408-25.134 8.267-7.353 10.262-8.932 16.95-8.932s8.683 1.579 16.95 8.932c7.299 6.514 17.524 14.844 32.031 20.112l-0 281.789z"  horiz-adv-x="1024" />

    
    <glyph glyph-name="zhuyuan" unicode="&#58901;" d="M927.024 471.258c-19.094 0-34.586-15.492-34.586-34.586v-57.642h-389.176v57.642c0 69.937-56.876 126.813-126.813 126.813l-244.889-0v195.984c0 19.094-15.492 34.586-34.586 34.586s-34.586-15.492-34.586-34.586v-691.708c0-19.094 15.492-34.586 34.586-34.586s34.586 15.492 34.586 34.586v103.757h426.553c19.094 0 34.586 15.492 34.586 34.586 0 19.094-15.492 34.586-34.586 34.586l-426.553 0v69.17l760.879 0v-69.17h-195.984c-19.094 0-34.586-15.492-34.586-34.586 0-19.094 15.492-34.586 34.586-34.586h195.984v-103.756c0-19.094 15.492-34.586 34.586-34.586s34.586 15.492 34.586 34.586l0 368.91c-0.001 19.094-15.493 34.586-34.587 34.586zM136.064 379.031v115.285h240.387c31.793 0 57.642-25.849 57.642-57.642v-57.642h-298.029z"  horiz-adv-x="1024" />

    
    <glyph glyph-name="zixunjilu" unicode="&#58902;" d="M754.041 519.929c17.317 0 31.368 14.050 31.368 31.368l0 167.296c0 63.431-51.586 115.017-115.017 115.017l-316.786-0c-63.431 0-115.017-51.586-115.017-115.017v-669.187c0-63.431 51.586-115.017 115.017-115.017l316.786 0c63.431 0 115.017 51.586 115.017 115.017v334.593c0 17.317-14.050 31.368-31.368 31.368s-31.368-14.050-31.368-31.368l-0-177.752h-421.345v512.346c0 28.836 23.444 52.281 52.281 52.281l316.785-0c28.836 0 52.281-23.444 52.281-52.281v-167.297c0-17.317 14.050-31.367 31.367-31.367zM722.673 143.511v-94.104c0-28.836-23.444-52.281-52.281-52.281h-316.786c-28.836 0-52.281 23.444-52.281 52.281v94.104h421.347zM428.352 70.319c0 11.503 9.409 20.912 20.912 20.912h125.473c11.503 0 20.912-9.409 20.912-20.912 0-11.5-9.409-20.912-20.912-20.912l-125.474-0c-11.502 0-20.911 9.412-20.911 20.912zM355.159 551.297c0 17.317 14.050 31.368 31.368 31.368h167.297c17.317 0 31.368-14.050 31.368-31.368 0-17.317-14.050-31.368-31.368-31.368h-167.297c-17.317 0-31.368 14.050-31.368 31.368zM355.159 676.77c0 17.317 14.050 31.368 31.368 31.368h83.648c17.317 0 31.368-14.050 31.368-31.368s-14.050-31.368-31.368-31.368h-83.648c-17.317 0-31.368 14.050-31.368 31.368zM355.159 425.825c0 17.317 14.050 31.368 31.368 31.368h250.945c17.317 0 31.368-14.050 31.368-31.368 0-17.317-14.050-31.368-31.368-31.368h-250.945c-17.317 0-31.368 14.050-31.368 31.368z"  horiz-adv-x="1024" />

    
    <glyph glyph-name="ertong" unicode="&#58903;" d="M961.61 399.139c0-59.101-44.846-107.951-102.273-114.322-48.931-149.366-188.372-251.639-347.337-251.639s-298.406 102.273-347.337 251.639c-57.427 6.372-102.273 55.221-102.273 114.322 0 59.142 44.846 107.992 102.314 114.322 43.744 132.702 162.069 231.34 301.592 248.78 16.868 2.083 32.88-10.048 35.003-27.242 2.164-17.196-10.048-32.88-27.242-35.003-122.368-15.276-225.091-106.113-255.56-225.99l-6.821-26.875-27.488 3.472c-4.003 0.531-5.351 0.817-6.78 0.817-28.836 0-52.281-23.444-52.281-52.281 0-30.265 27.121-55.343 56.447-51.83l27.774 3.839 9.149-26.875c34.187-134.458 154.88-228.359 293.505-228.359s259.318 93.901 293.505 228.359l6.821 26.875 27.488-3.472c4.003-0.531 5.351-0.817 6.78-0.817 28.836 0 52.281 23.444 52.281 52.281 0 30.265-27.162 55.303-56.447 51.83l-27.774-3.839-9.149 26.875c-23.69 93.083-90.919 170.196-179.836 206.262-16.052 6.535-23.771 24.834-17.276 40.885 6.494 16.052 24.752 23.73 40.885 17.276 99.578-40.436 176.609-123.471 210.019-224.969 57.466-6.329 102.312-55.179 102.312-114.321zM323.79 440.962c0-34.648 28.088-62.736 62.736-62.736s62.736 28.088 62.736 62.736-28.088 62.736-62.736 62.736-62.736-28.087-62.736-62.736zM637.473 378.227c34.648 0 62.736 28.088 62.736 62.736s-28.088 62.736-62.736 62.736c-34.648 0-62.736-28.088-62.736-62.736s28.087-62.736 62.736-62.736zM553.743 660.58c4.452 0 8.986 0.98 13.274 2.982 15.643 7.271 22.424 25.895 15.235 41.579-4.289 9.353-13.56 38.107-5.023 58.57 4.533 10.783 14.050 18.706 29.121 24.18 16.297 5.922 24.711 23.934 18.788 40.19-5.964 16.256-23.934 24.547-40.19 18.788-40.149-14.622-57.958-40.395-65.8-59.468-20.422-49.625 3.513-102.967 6.331-108.89 5.309-11.314 16.541-17.93 28.264-17.93z"  horiz-adv-x="1024" />

    
    <glyph glyph-name="jiuzhenpingzheng" unicode="&#58904;" d="M201.542 262.546l-0.81-143.701h611.324l0 136.226-0.81 7.475c-23.327 105.152-151.536 181.483-304.829 181.483-153.338 0-281.548-76.331-304.875-181.483zM742.884 251.332v-63.316h-472.982v62.956c18.328 69.756 121.139 123.886 236.514 123.886 117.221 0.001 221.472-55.886 236.469-123.525zM506.416 458.574c75.115 0 136.225 61.11 136.225 136.225s-61.11 136.225-136.225 136.225c-75.16 0-136.27-61.11-136.27-136.225s61.109-136.225 136.27-136.225zM506.416 661.854c36.972 0 67.054-30.082 67.054-67.054s-30.082-67.054-67.054-67.054c-37.017 0-67.099 30.082-67.099 67.054s30.082 67.054 67.099 67.054zM62.39 568.456v230.569c0 19.094 15.492 34.586 34.586 34.586h230.568c19.094 0 34.586-15.492 34.586-34.586s-15.492-34.586-34.586-34.586h-195.984v-195.984c0-19.094-15.492-34.586-34.586-34.586s-34.585 15.491-34.585 34.586zM961.61 799.025v-230.569c0-19.094-15.492-34.586-34.586-34.586-19.094 0-34.586 15.492-34.586 34.586v195.984h-195.984c-19.094 0-34.586 15.492-34.586 34.586s15.492 34.586 34.586 34.586h230.569c19.094-0.001 34.586-15.492 34.586-34.586zM961.61 199.545v-230.569c0-19.094-15.492-34.586-34.586-34.586l-230.569-0c-19.094 0-34.586 15.492-34.586 34.586 0 19.094 15.492 34.586 34.586 34.586h195.984l0 195.984c0 19.094 15.492 34.586 34.586 34.586 19.094-0.001 34.586-15.492 34.586-34.586zM362.13-31.024c0-19.094-15.492-34.586-34.586-34.586h-230.569c-19.094 0-34.586 15.492-34.586 34.586l-0 230.569c0 19.094 15.492 34.586 34.586 34.586s34.586-15.492 34.586-34.586v-195.984h195.984c19.095-0.001 34.586-15.492 34.586-34.586z"  horiz-adv-x="1024" />

    
    <glyph glyph-name="keshifenbu" unicode="&#58905;" d="M879.172 54.354l-41.711 291.934c-1.292 62.586-52.6 113.074-115.474 113.074h-24.713c31.319 40.729 48.173 88.93 48.173 140.061 0 51.718-16.467 100.77-47.616 141.783-10.499 13.781-30.248 16.528-44.13 6.029-13.863-10.54-16.549-30.309-6.029-44.171 22.742-29.94 34.779-65.785 34.779-103.641 0-38.388-12.878-74.686-37.383-105.158l-133.766-169.468-126.178 160.117c-28.094 31.868-43.576 72.511-43.576 114.51 0 94.413 76.47 171.19 170.452 171.19 17.39 0 31.498 14.108 31.498 31.498s-14.108 31.498-31.498 31.498c-128.721 0-233.449-105.035-233.449-234.187 0-51.088 17.487-100.121 47.402-140.061h-23.941c-62.874 0-114.182-50.488-115.473-113.074l-41.711-291.934c-0.205-1.477-0.308-2.994-0.308-4.471 0-63.694 51.8-115.494 115.494-115.494h503.973c63.694 0 115.493 51.8 115.493 115.494 0 1.476-0.102 2.993-0.308 4.47zM581.405 203.238c34.612 26.576 101.583 57.272 208.828 28.114l26.21-183.438c-0.049-1.279-0.712-2.345-0.851-3.599-62.45 71.32-147.407 122.526-234.187 158.923zM249.514 343.868c0 28.955 23.542 52.498 52.498 52.498h72.727l93.070-118.16c10.889-13.822 26.7-21.778 43.392-21.819 0.041 0 0.061 0 0.082 0 16.692 0 32.544 7.915 43.576 21.86l93.201 118.119h73.93c28.955 0 52.498-23.542 52.498-52.498 0-1.477 0.102-2.994 0.308-4.471l5.852-40.95c-148.22 30.842-232.144-34.918-264.944-69.992-118.424 40.398-228.319 55.732-273.673 60.718l7.177 50.224c0.204 1.478 0.306 2.995 0.306 4.471zM260.013-2.613c-28.279 0-51.411 22.476-52.457 50.529l25.546 178.78c76.831-8.615 391.081-54.264 538.679-227.769-2.645-0.412-5.037-1.54-7.796-1.54l-503.972 0zM543.498 628.502h52.498c17.39 0 31.498-14.108 31.498-31.498s-14.108-31.498-31.498-31.498h-52.498v-52.498c0-17.39-14.108-31.498-31.498-31.498s-31.498 14.108-31.498 31.498v52.498h-52.498c-17.39 0-31.498 14.108-31.498 31.498s14.108 31.498 31.498 31.498h52.498v52.498c0 17.39 14.108 31.498 31.498 31.498s31.498-14.108 31.498-31.498v-52.498z"  horiz-adv-x="1024" />

    
    <glyph glyph-name="keshijieshao" unicode="&#58906;" d="M596.633 669.977h-332.898c-57.447 0-104.188-44.863-104.188-99.993v-535.601c0-55.131 46.741-99.993 104.188-99.993h242.772c8.007 0 15.16 3.241 20.627 8.269l0.147-0.16 163.633 150.729c0.182 0.167 0.274 0.394 0.452 0.564 0.624 0.602 1.031 1.349 1.602 2 1.833 2.095 3.383 4.317 4.564 6.769 0.507 1.044 0.874 2.1 1.261 3.206 0.904 2.589 1.423 5.226 1.611 7.964 0.050 0.719 0.416 1.333 0.416 2.067v454.184c0 55.132-46.741 99.994-104.188 99.994zM220.908 34.383v535.602c0 21.293 19.216 38.631 42.825 38.631l332.899 0c23.61 0 42.825-17.338 42.825-38.631v-423.503h-132.951c-16.939 0-30.681-13.743-30.681-30.681v-120.048l-212.091-0c-23.611 0-42.826 17.338-42.826 38.631zM537.188 35.063v50.056h54.371l-54.371-50.056zM864.453 475.664v-239.136c0-62.041-50.456-112.497-112.497-112.497-16.939 0-30.681 13.743-30.681 30.681s13.743 30.681 30.681 30.681c28.204 0 51.136 22.931 51.136 51.136v239.136c0 16.939 13.743 30.681 30.681 30.681 16.938 0.001 30.681-13.742 30.681-30.681zM864.453 721.113v-81.816c0-16.939-13.743-30.681-30.681-30.681-16.939 0-30.681 13.743-30.681 30.681v81.816c0 28.204-22.931 51.136-51.136 51.136l-327.266 0c-28.204 0-51.136-22.931-51.136-51.136 0-16.939-13.743-30.681-30.681-30.681-16.939 0-30.681 13.743-30.681 30.681 0 62.041 50.456 112.497 112.497 112.497h327.266c62.041-0 112.497-50.456 112.497-112.497zM455.371 393.847c0-16.939-13.743-30.681-30.681-30.681h-51.136v-51.136c0-16.939-13.743-30.681-30.681-30.681-16.939 0-30.681 13.743-30.681 30.681v51.136h-51.136c-16.939 0-30.681 13.743-30.681 30.681 0 16.939 13.743 30.681 30.681 30.681h51.136l-0 51.136c0 16.939 13.743 30.681 30.681 30.681 16.939 0 30.681-13.743 30.681-30.681l0-51.135h51.136c16.939 0 30.681-13.743 30.681-30.682zM475.826 516.572c0 16.939 13.743 30.681 30.681 30.681h81.816c16.939 0 30.681-13.743 30.681-30.681 0-16.939-13.743-30.681-30.681-30.681h-81.816c-16.939-0.001-30.681 13.742-30.681 30.681zM475.826 393.847c0 16.939 13.743 30.681 30.681 30.681h81.816c16.939 0 30.681-13.743 30.681-30.681 0-16.939-13.743-30.681-30.681-30.681h-81.816c-16.939-0-30.681 13.743-30.681 30.681zM475.826 271.123c0 16.939 13.743 30.681 30.681 30.681h81.816c16.939 0 30.681-13.743 30.681-30.681s-13.743-30.681-30.681-30.681h-81.816c-16.939-0-30.681 13.742-30.681 30.681z"  horiz-adv-x="1024" />

    
    <glyph glyph-name="shengri" unicode="&#58907;" d="M930.242 95.913h-52.281v269.774c0 58.816-51.586 106.644-115.017 106.644h-54.392c1.182 3.303 2.111 6.747 2.111 10.456v83.648c0 17.317-14.050 31.368-31.368 31.368-17.317 0-31.368-14.050-31.368-31.368v-83.648c0-3.709 0.929-7.153 2.111-10.456l-108.781 0c1.182 3.303 2.111 6.747 2.111 10.456v83.648c0 17.317-14.050 31.368-31.368 31.368s-31.368-14.050-31.368-31.368v-83.648c0-3.709 0.929-7.153 2.111-10.456h-108.783c1.182 3.303 2.111 6.747 2.111 10.456v83.648c0 17.317-14.050 31.368-31.368 31.368s-31.368-14.050-31.368-31.368v-83.648c0-3.709 0.929-7.153 2.111-10.456h-44.098c-63.431 0-115.017-47.828-115.017-106.644v-269.774h-62.573c-17.317 0-31.368-14.050-31.368-31.368 0-17.317 14.050-31.368 31.368-31.368h460.066c17.317 0 31.368 14.050 31.368 31.368 0 17.317-14.050 31.368-31.368 31.368l-334.756-0v139.891c12.54-10.673 29.089-20.258 53.669-20.258 37.903 0 57.917 22.424 71.15 37.249 11.763 13.192 15.439 16.256 24.342 16.256 8.946 0 12.621-3.104 24.384-16.297 13.233-14.827 33.247-37.208 71.191-37.208s57.958 22.424 71.232 37.249c11.763 13.152 15.439 16.256 24.383 16.256 8.986 0 12.62-3.104 24.424-16.297 13.274-14.827 33.247-37.208 71.191-37.208 37.985 0 58.039 22.383 71.272 37.208 11.845 13.192 15.52 16.297 24.506 16.297 9.027 0 12.702-3.104 24.547-16.297 8.897-9.968 21.435-22.883 39.864-30.585v-126.257h-94.104c-17.317 0-31.368-14.050-31.368-31.368 0-17.317 14.050-31.368 31.368-31.368h209.121c17.317 0 31.368 14.050 31.368 31.368-0.001 17.318-14.051 31.368-31.369 31.368zM750.814 331.787c-37.944 0-57.998-22.383-71.231-37.208-11.845-13.192-15.52-16.297-24.547-16.297-8.945 0-12.62 3.104-24.383 16.256-13.274 14.827-33.288 37.249-71.232 37.249s-57.917-22.383-71.191-37.208c-11.804-13.192-15.44-16.297-24.424-16.297-8.945 0-12.62 3.104-24.383 16.297-13.233 14.827-33.247 37.208-71.191 37.208-37.902 0-57.916-22.424-71.149-37.249-11.763-13.192-15.439-16.256-24.343-16.256-8.863 0-12.499 3.064-24.262 16.256-7.124 8.008-16.567 17.974-29.408 25.683v45.467c0 23.812 23.934 43.907 52.281 43.907h491.597c28.346 0 52.281-20.096 52.281-43.907v-63.832c-13.199 13.949-32.155 29.932-64.412 29.932zM322.525 627.905c-5.841 5.882-9.19 13.805-9.19 22.178 0 8.373 3.349 16.337 9.19 22.178 12.13 11.722 32.634 11.722 44.356 0 5.841-5.841 9.19-14.214 9.19-22.178 0-7.923-3.349-16.297-9.19-22.178-5.882-5.841-14.255-9.19-22.178-9.19-7.964 0.001-16.337 3.35-22.178 9.19zM489.822 627.905c-5.841 5.882-9.19 13.805-9.19 22.178 0 8.373 3.349 16.337 9.19 22.178 12.13 11.722 32.634 11.722 44.356 0 5.841-5.841 9.19-14.214 9.19-22.178 0-7.923-3.349-16.297-9.19-22.178-5.882-5.841-14.255-9.19-22.178-9.19-7.964 0.001-16.338 3.35-22.178 9.19zM657.118 627.905c-5.841 5.882-9.19 13.805-9.19 22.178 0 8.373 3.349 16.337 9.19 22.178 12.13 11.722 32.634 11.722 44.356 0 5.841-5.841 9.19-14.214 9.19-22.178 0-7.923-3.349-16.297-9.19-22.178-5.882-5.841-14.255-9.19-22.178-9.19-7.964 0.001-16.337 3.35-22.178 9.19z"  horiz-adv-x="1024" />

    
    <glyph glyph-name="shiyongzhinan" unicode="&#58908;" d="M927.024 586.543c19.094 0 34.586 15.492 34.586 34.586v184.455c0 1.942-0.796 3.626-1.106 5.48-0.296 1.83-0.068 3.645-0.672 5.463-0.146 0.442-0.503 0.729-0.667 1.162-0.886 2.344-2.302 4.292-3.65 6.364-1.126 1.733-2.024 3.594-3.42 5.069-1.608 1.711-3.608 2.873-5.533 4.23-1.672 1.166-3.155 2.519-5.004 3.375-2.097 0.982-4.425 1.317-6.727 1.867-2.122 0.503-4.132 1.179-6.335 1.28-0.515 0.023-0.949 0.296-1.469 0.296-1.973 0-3.679-0.805-5.562-1.123-1.801-0.284-3.594-0.056-5.382-0.633l-265.74-88.58-265.74 88.579c-1.452 0.476-2.907 0.248-4.371 0.526-1.717 0.341-3.327 0.85-5.097 0.931-0.518 0.023-0.952 0.299-1.475 0.299-0.484 0-0.884-0.256-1.362-0.276-1.92-0.079-3.668-0.616-5.525-1.005-1.357-0.267-2.708-0.040-4.055-0.476l-276.685-92.228c-0.465-0.155-0.765-0.529-1.219-0.701-2.28-0.864-4.163-2.251-6.184-3.555-1.793-1.156-3.701-2.085-5.224-3.524-1.582-1.486-2.643-3.341-3.92-5.1-1.325-1.833-2.801-3.502-3.743-5.55-0.85-1.833-1.106-3.864-1.627-5.854-0.627-2.398-1.359-4.695-1.455-7.211-0.019-0.468-0.27-0.862-0.27-1.334v-645.594c0-1.945 0.796-3.623 1.106-5.48 0.296-1.83 0.068-3.648 0.672-5.463 0.166-0.498 0.518-0.862 0.704-1.348 0.498-1.306 1.241-2.401 1.891-3.623 1.334-2.528 2.814-4.858 4.669-6.924 0.934-1.047 1.9-1.947 2.955-2.873 2.131-1.867 4.422-3.383 6.927-4.669 1.177-0.611 2.246-1.272 3.496-1.748 3.875-1.469 7.932-2.457 12.165-2.457 3.626 0 7.318 0.585 10.943 1.756l265.74 88.58 265.74-88.58c0.090-0.028 0.18-0.014 0.27-0.042 3.414-1.109 7.009-1.714 10.673-1.714s7.258 0.605 10.673 1.714c0.090 0.028 0.18 0.014 0.27 0.042l276.684 92.228c0.462 0.155 0.762 0.529 1.216 0.701 2.285 0.867 4.179 2.26 6.203 3.569 1.785 1.154 3.687 2.077 5.201 3.507 1.585 1.492 2.651 3.352 3.932 5.114 1.323 1.83 2.795 3.493 3.735 5.539 0.85 1.833 1.109 3.87 1.63 5.859 0.627 2.398 1.359 4.698 1.455 7.208 0.019 0.468 0.27 0.859 0.27 1.331l-0 276.684c0 19.094-15.492 34.586-34.586 34.586s-34.586-15.492-34.586-34.586v-251.734l-207.514-69.171v572.641l207.512 69.17v-136.45c0.001-19.094 15.492-34.586 34.586-34.586zM131.56 688.408l207.512 69.17v-572.64l-207.512-69.171v572.641zM408.244 757.578l207.512-69.17-0-572.641-207.512 69.17 0 572.641zM156.599 563.486c-6.372 18.013 3.063 37.737 21.052 44.132l92.228 32.649c18.058 6.305 37.783-3.062 44.155-21.075 6.372-18.013-3.062-37.737-21.052-44.132l-92.228-32.649c-3.828-1.351-7.723-1.981-11.551-1.981-14.23-0.001-27.582 8.871-32.604 23.056zM292.982 466.53l-92.228-32.694c-3.806-1.351-7.723-1.981-11.551-1.981-14.23 0-27.561 8.826-32.604 23.012-6.372 18.013 3.040 37.783 21.052 44.177l92.228 32.694c17.946 6.395 37.76-3.062 44.155-21.030 6.372-18.013-3.039-37.784-21.052-44.178z"  horiz-adv-x="1024" />

    
    <glyph glyph-name="tiaoxingma" unicode="&#58909;" d="M145.076 746.352v-661.496c0-22.852-18.491-41.344-41.344-41.344s-41.344 18.491-41.344 41.344v661.496c0 22.851 18.491 41.344 41.344 41.344s41.344-18.492 41.344-41.344zM351.794 787.695c-22.851 0-41.344-18.491-41.344-41.344v-661.496c0-22.852 18.491-41.344 41.344-41.344s41.344 18.491 41.344 41.344v661.496c-0.001 22.851-18.492 41.344-41.344 41.344zM806.572 798.031c-28.545 0-51.679-23.135-51.679-51.679v-661.496c0-28.545 23.135-51.679 51.679-51.679s51.679 23.135 51.679 51.679v661.496c0 28.544-23.134 51.679-51.679 51.679zM227.763 777.359c-17.119 0-31.007-13.888-31.007-31.007v-661.496c0-17.119 13.888-31.007 31.007-31.007s31.007 13.888 31.007 31.007v661.496c0 17.119-13.888 31.007-31.007 31.007zM558.511 777.359c-17.119 0-31.007-13.888-31.007-31.007v-661.496c0-17.119 13.889-31.007 31.007-31.007s31.007 13.888 31.007 31.007v661.496c0 17.119-13.888 31.007-31.007 31.007zM682.541 767.024c-11.426 0-20.672-9.246-20.672-20.672v-661.496c0-11.426 9.246-20.672 20.672-20.672s20.672 9.246 20.672 20.672v661.496c-0 11.425-9.246 20.672-20.672 20.672zM930.603 777.359c-17.119 0-31.007-13.888-31.007-31.007v-661.496c0-17.119 13.888-31.007 31.007-31.007s31.007 13.888 31.007 31.007v661.496c0 17.119-13.889 31.007-31.007 31.007z"  horiz-adv-x="1024" />

    
    <glyph glyph-name="xingbie" unicode="&#59199;" d="M550.515199 271.451668l0-107.028619 135.928832 0c17.317411 0 31.368428-14.049994 31.368428-31.368428s-14.049994-31.368428-31.368428-31.368428L550.515199 101.686193l0-135.928832c0-17.317411-14.049994-31.368428-31.368428-31.368428-17.317411 0-31.368428 14.049994-31.368428 31.368428L487.778342 101.687216 351.850533 101.687216c-17.317411 0-31.368428 14.049994-31.368428 31.368428s14.049994 31.368428 31.368428 31.368428l135.928832 0L487.779366 270.834614c-140.934846 15.670911-250.945379 135.418202-250.945379 280.462646 0 155.656129 126.656655 282.313807 282.313807 282.313807 119.387088 0 226.357378-75.601862 266.180362-188.086749 5.8001-16.337083-2.777253-34.268478-19.11536-40.026622-16.337083-5.8001-34.227546 2.777253-40.026622 19.11536-30.960129 87.487563-114.159016 146.262178-207.03838 146.262178-121.061216 0-219.576951-98.515734-219.576951-219.576951s98.515734-219.576951 219.576951-219.576951c92.87834 0 176.119183 58.815547 207.078289 146.384975 5.759167 16.337083 23.648606 24.833595 40.026622 19.11536 16.338107-5.759167 24.873504-23.689538 19.11536-40.026622C749.08572 354.636229 656.909367 283.429467 550.515199 271.451668z"  horiz-adv-x="1024" />

    
    <glyph glyph-name="yishengchuzhen" unicode="&#59200;" d="M769.060657 174.672484c-36.325323-91.156116-126.367059-152.36927-224.119407-152.36927l-65.8825 0c-133.007293 0-241.21169 108.247376-241.21169 241.254669L237.84706 376.547261c-99.206466 15.905248-175.458127 101.406574-175.458127 205.027583L62.388932 800.896992c0 18.162662 14.735609 32.898271 32.898271 32.898271l87.729064 0c18.162662 0 32.898271-14.735609 32.898271-32.898271s-14.735609-32.898271-32.898271-32.898271l-54.830793 0 0-186.423877c0-78.604242 63.954591-142.558833 142.558833-142.558833s142.558833 63.954591 142.558833 142.558833L413.30314 767.998721l-54.830793 0c-18.162662 0-32.898271 14.735609-32.898271 32.898271s14.735609 32.898271 32.898271 32.898271l87.729064 0c18.162662 0 32.898271-14.735609 32.898271-32.898271l0-219.322148c0-103.621009-76.251661-189.122335-175.457104-205.027583l0-112.988354c0-96.766904 78.6902-175.457104 175.415149-175.457104l65.8825 0c71.065546 0 136.562259 44.592614 163.03519 110.902856 6.682189 16.920368 25.959232 25.187659 42.707684 18.376533C767.561513 210.655 775.785825 191.549873 769.060657 174.672484zM786.151917 420.411281l0-82.874499c0-18.162662-14.735609-32.898271-32.898271-32.898271-18.162662 0-32.898271 14.735609-32.898271 32.898271l0 82.874499c-99.206466 15.905248-175.457104 101.406574-175.457104 205.027583 0 114.886587 93.468788 208.356398 208.356398 208.356398s208.356398-93.468788 208.356398-208.356398C961.610044 521.817855 885.358383 436.316529 786.151917 420.411281zM895.813502 625.439888c0 78.604242-63.954591 142.558833-142.558833 142.558833s-142.558833-63.954591-142.558833-142.558833 63.954591-142.558833 142.558833-142.558833S895.813502 546.834622 895.813502 625.439888zM873.880981 625.439888c0-66.525136-54.102199-120.627335-120.627335-120.627335s-120.627335 54.102199-120.627335 120.627335 54.102199 120.627335 120.627335 120.627335S873.880981 691.964 873.880981 625.439888zM808.084439 625.439888c0 30.242791-24.588001 54.830793-54.830793 54.830793-30.242791 0-54.830793-24.588001-54.830793-54.830793s24.588001-54.830793 54.830793-54.830793C783.496437 570.609095 808.084439 595.197096 808.084439 625.439888z"  horiz-adv-x="1024" />

    
    <glyph glyph-name="yishengjieshao" unicode="&#58910;" d="M738.313 363.004c30.499 44.251 48.456 97.778 48.456 155.466 0 4.576-0.904 9.074-1.129 13.648 43.463 28.953 72.214 78.316 72.214 134.33 0 88.986-72.413 161.399-161.399 161.399-43.468 0-82.816-17.465-111.868-45.515-23.662 6.499-47.795 10.929-72.587 10.929-151.514 0-274.769-123.255-274.769-274.791 0-57.685 17.954-111.209 48.453-155.46-147.563-64.767-223.294-194.634-223.294-388.27 0-19.094 15.492-34.586 34.586-34.586h174.841c19.094 0 34.586 15.492 34.586 34.586 0 19.094-15.492 34.586-34.586 34.586h-138.512c8.562 154.36 74.296 253.001 201.233 299.743 47.923-40.67 109.824-65.345 177.461-65.345 67.631 0 129.529 24.673 177.453 65.34 126.942-46.78 192.679-145.426 201.241-299.738l-349.871 0c-19.094 0-34.586-15.492-34.586-34.586 0-19.094 15.492-34.586 34.586-34.586h386.204c19.094 0 34.586 15.492 34.586 34.586-0.001 193.605-75.725 323.433-223.298 388.264zM696.455 781.733c63.564 0 115.285-51.698 115.285-115.285s-51.72-115.285-115.285-115.285-115.285 51.697-115.285 115.285 51.721 115.285 115.285 115.285zM512 312.892c-113.371 0-205.599 92.228-205.599 205.576 0 113.394 92.228 205.621 205.599 205.621 11.222 0 22.26-1.32 33.203-3.105-6.198-17.116-10.146-35.311-10.146-54.538 0-88.986 72.413-161.399 161.399-161.399 6.845 0 13.366 1.19 19.989 2.021-6.050-107.958-94.978-194.176-204.445-194.176zM696.455 597.276c38.143 0 69.17 31.028 69.17 69.17s-31.028 69.17-69.17 69.17-69.17-31.028-69.17-69.17 31.028-69.17 69.17-69.17zM696.455 689.504c12.722 0 23.057-10.358 23.057-23.057s-10.335-23.057-23.057-23.057-23.057 10.358-23.057 23.057 10.335 23.057 23.057 23.057zM514.882 118.845c0-19.094-15.491-34.586-34.586-34.586h-69.17v-69.17c0-19.094-15.491-34.586-34.586-34.586-19.094 0-34.586 15.492-34.586 34.586v69.17h-69.17c-19.094 0-34.586 15.492-34.586 34.586s15.492 34.586 34.586 34.586h69.17v69.17c0 19.094 15.492 34.586 34.586 34.586 19.095 0 34.586-15.492 34.586-34.586v-69.17h69.17c19.095 0 34.586-15.491 34.586-34.586z"  horiz-adv-x="1024" />

    
    <glyph glyph-name="zhinengdaozhen" unicode="&#58911;" d="M448.34 501.368c0 35.078 28.437 63.515 63.515 63.515s63.515-28.437 63.515-63.515-28.437-63.515-63.515-63.515-63.515 28.436-63.515 63.515zM418.609 384.919c-10.917-13.729-8.56-33.701 5.211-44.576 2.026-1.613 34.983-27.043 82.866-27.043 23.942 0 51.605 6.368 81.006 25.223 14.762 9.47 19.021 29.111 9.552 43.873-9.428 14.721-29.028 19.104-43.873 9.552-48.339-31.013-86.010-4.921-90.434-1.613-13.687 10.669-33.618 8.27-44.328-5.416zM705.112 344.403c1.054 8.311 2.538 16.499 2.538 25.092 0 19.973-16.168 36.14-36.14 36.14s-36.14-16.168-36.14-36.14c0-70.792-57.56-128.394-128.352-128.394s-128.394 57.602-128.394 128.394l-0 136.704c0 70.792 57.602 128.394 128.394 128.394 51.564 0 97.96-30.848 118.263-78.649 7.774-18.318 28.904-27.002 47.388-19.104 18.36 7.774 26.919 28.987 19.104 47.388-28.226 66.481-89.060 111.701-159.073 120.737 0.044 0.564 0.325 1.044 0.325 1.621v48.827c12.428 7.376 21.171 20.353 21.171 35.854 0 23.387-18.957 42.343-42.343 42.343-23.387 0-42.343-18.957-42.343-42.343 0-15.501 8.743-28.478 21.171-35.854v-48.827c0-0.473 0.237-0.869 0.269-1.333-103.041-8.342-184.611-93.9-184.611-199.051v-136.706c0-11.823 1.518-23.257 3.489-34.525-103.303-41.655-165.642-111.85-164.755-189.348 0.713-63.936 44.364-122.313 120.165-163.294 6.978-27.5 31.693-47.939 61.365-47.939 35.078 0 63.515 28.437 63.515 63.515s-28.437 63.515-63.515 63.515c-19.114 0-36.053-8.619-47.698-21.978-49.001 29.796-76.984 67.494-77.429 106.842-0.576 51.954 47.819 102.8 126.055 135.247 32.735-66.466 100.523-112.712 179.485-112.712 82.314 0 153.080 49.936 183.974 121.047 81.386-29.302 130.885-79.564 131.532-136.346 0.493-43.984-33.192-86.653-92.576-119.062-11.501 16.269-30.37 26.961-51.807 26.961-35.078 0-63.515-28.437-63.515-63.515s28.437-63.515 63.515-63.515c26.88 0 49.732 16.755 59.005 40.346 0.279 0.122 0.581 0.059 0.859 0.191 90.351 43.087 141.75 108.421 140.924 179.256-0.961 82.45-66.696 152.922-173.813 190.22z"  horiz-adv-x="1024" />

    
    <glyph glyph-name="zhinengtijian" unicode="&#58912;" d="M883.891 555.896c0-17.599-14.278-31.876-31.876-31.876l-242.517 0.125c-39.139-0.374-58.689 16.063-67.488 30.174-19.507 31.254-2.407 68.401 1.245 75.54 2.491 4.898 6.185 9.048 10.792 12.078 19.632 13.033 31.337 34.74 31.337 58.149 0 38.475-31.295 69.771-69.729 69.771-38.475 0-69.771-31.296-69.771-69.771 0-23.409 11.705-45.117 31.337-58.149 5.022-3.321 9.007-8.010 11.497-13.531 1.95-4.316 18.346-43.207-2.905-74.628-9.837-14.486-30.341-31.212-74.212-29.594l-239.612-0.042c-17.599 0-31.876 14.278-31.876 31.876 0 17.599 14.278 31.876 31.876 31.876h240.941c16.602-0.415 20.712 2.324 20.753 2.366-0.125 0.498-0.498 2.781-1.162 5.437-31.752 25.236-50.388 63.462-50.388 104.386 0 73.631 59.893 133.524 133.524 133.524 73.59 0 133.482-59.893 133.482-133.524 0-41.299-18.968-79.816-51.259-105.051-0.706-2.491-1.162-4.939-1.245-6.682 1.37 0.291 4.898-0.456 11.082-0.456 0.415 0 0.872 0 1.286 0l243.016-0.125c17.638 0.002 31.875-14.276 31.875-31.874zM384.494 508.164h-170.007c-17.599 0-31.876-14.278-31.876-31.876 0-17.599 14.278-31.876 31.876-31.876h138.131v-435.643c0-17.599 14.278-31.876 31.876-31.876s31.876 14.278 31.876 31.876l-0 467.519c0.001 17.599-14.277 31.876-31.876 31.876zM809.512 444.412h-11.845c26.96-34.323 43.721-77.006 43.721-123.936 0-100.402-73.883-183.248-170.007-198.66v-155.551c0-17.599-14.278-31.876-31.876-31.876-17.599 0-31.876 14.278-31.876 31.876l0 155.551c-96.124 15.412-170.007 98.257-170.007 198.66 0 111.318 90.566 201.884 201.884 201.884 25.829 0 50.342-5.315 73.063-14.195h96.944c17.599 0 31.876-14.278 31.876-31.876-0-17.599-14.278-31.877-31.877-31.877zM777.636 320.476c0 76.163-61.968 138.131-138.131 138.131s-138.131-61.968-138.131-138.131 61.968-138.131 138.131-138.131 138.131 61.967 138.131 138.131zM759.913 320.476c0-66.41-54-120.449-120.408-120.449-66.41 0-120.408 54.041-120.408 120.449s53.998 120.408 120.408 120.408c66.408-0.001 120.408-54 120.408-120.408zM717.411 320.476c0 42.958-34.948 77.906-77.906 77.906s-77.906-34.948-77.906-77.906c0-43 34.948-77.947 77.906-77.947s77.906 34.947 77.906 77.947zM639.505 362.526c-23.228 0-42.058-18.831-42.058-42.058 0-23.228 18.831-42.058 42.058-42.058s42.058 18.831 42.058 42.058c0.001 23.227-18.83 42.058-42.058 42.058z"  horiz-adv-x="1024" />

    
    <glyph glyph-name="baogaochaxun" unicode="&#58913;" d="M459.017 609.255h-170.83c-17.744 0-32.14 14.396-32.14 32.14s14.396 32.14 32.14 32.14h170.83c17.744 0 32.14-14.396 32.14-32.14s-14.396-32.14-32.14-32.14zM405.743 504.715c0 17.744-14.396 32.14-32.14 32.14l-85.415 0c-17.744 0-32.14-14.396-32.14-32.14s14.396-32.14 32.14-32.14h85.414c17.745-0.001 32.141 14.396 32.141 32.14zM288.188 434.366c-17.744 0-32.14-14.396-32.14-32.14s14.396-32.14 32.14-32.14h42.728c17.744 0 32.14 14.396 32.14 32.14s-14.396 32.14-32.14 32.14l-42.728 0zM866.674 99.11l-75.622 74.325c29.629 39.213 45.825 87.256 45.825 136.722 0 125.004-101.694 226.699-226.699 226.699s-226.698-101.694-226.698-226.698 101.694-226.699 226.699-226.699c7.7 0 15.317 0.377 22.808 1.13 17.66 1.674 30.592 17.41 28.877 35.070-1.674 17.702-17.535 31.178-35.070 28.877-5.482-0.502-11.007-0.795-16.614-0.795-89.558 0-162.418 72.86-162.418 162.418s72.86 162.418 162.418 162.418 162.418-72.86 162.418-162.418c0-38.878-13.935-76.459-36.953-103.494l-11.509-10.881c-6.319-5.984-9.96-14.313-10.044-23.059-0.084-8.704 3.39-17.117 9.625-23.226l97.927-96.254c6.236-6.152 14.396-9.207 22.515-9.207 8.328 0 16.614 3.222 22.933 9.625 12.429 12.638 12.261 32.977-0.419 45.448zM734.847-2.208c-1.506 1.13-4.855 5.817-7.072 8.872-8.704 12.178-24.943 34.861-56.789 34.861-31.847 0-48.127-22.683-56.831-34.861-1.34-1.841-3.097-4.268-4.604-6.152-1.464 1.883-3.222 4.31-4.562 6.152-8.704 12.178-24.942 34.861-56.789 34.861s-48.043-22.683-56.747-34.903c-1.298-1.8-2.972-4.143-4.436-6.026-1.506 1.883-3.18 4.227-4.478 6.068-8.704 12.178-24.942 34.861-56.789 34.861s-48.043-22.683-56.747-34.903c-1.298-1.8-2.972-4.143-4.436-5.984-1.464 1.841-3.138 4.185-4.436 5.984-8.704 12.22-24.9 34.903-56.707 34.903-31.847 0-48.085-22.683-56.789-34.903-1.298-1.8-2.93-4.101-4.394-5.942-1.464 1.841-3.097 4.143-4.352 5.9-5.016 7.043-13.015 17.189-24.565 24.851l0 701.698c0 19.963 16.238 36.199 36.199 36.199h414.519c19.963 0 36.199-16.238 36.199-36.199v-170.83c0-17.744 14.396-32.14 32.14-32.14 17.744 0 32.14 14.396 32.14 32.14v170.83c0 55.409-45.072 100.48-100.48 100.48h-414.52c-55.409 0-100.48-45.072-100.48-100.48v-717.198c-0.447-2.040-1.34-3.915-1.34-6.087 0-14.088 8.388-25.436 20.661-29.655 3.175-1.387 6.714-1.938 10.324-2.231 1.558-1.287 4.69-5.655 6.806-8.623 8.704-12.22 24.9-34.944 56.707-34.944 31.847 0 48.043 22.683 56.747 34.861 1.298 1.841 2.972 4.185 4.436 6.026 1.464-1.841 3.138-4.185 4.436-5.984 8.704-12.178 24.9-34.903 56.747-34.903s48.043 22.683 56.747 34.903c1.298 1.8 2.971 4.143 4.436 6.026 1.506-1.883 3.18-4.227 4.478-6.068 8.704-12.178 24.942-34.861 56.789-34.861s48.043 22.683 56.747 34.903c1.298 1.8 3.014 4.185 4.478 6.068 1.464-1.883 3.18-4.268 4.52-6.11 8.704-12.178 24.942-34.861 56.789-34.861s48.127 22.683 56.831 34.861c1.34 1.841 3.097 4.268 4.604 6.152 1.464-1.883 3.222-4.31 4.562-6.152 8.704-12.178 24.942-34.861 56.831-34.861 17.744 0 33.396 13.977 33.396 31.721 0.002 17.744-13.181 31.68-30.925 31.68z"  horiz-adv-x="1024" />

    
    <glyph glyph-name="chuzhendongtai" unicode="&#58914;" d="M846.593 765.1h-41.825c-17.317 0-31.368-14.050-31.368-31.368s14.050-31.368 31.368-31.368h41.825c28.836 0 52.281-23.444 52.281-52.281v-210.699c-97.701-85.31-237.591-134.351-386.874-134.351-149.321 0-289.211 49.041-386.874 134.349l-0 210.703c0 28.836 23.444 52.281 52.281 52.281h460.066c17.317 0 31.368 14.050 31.368 31.368s-14.050 31.368-31.368 31.368h-460.066c-63.431 0-115.017-51.586-115.017-115.017v-501.891c0-63.431 51.586-115.017 115.017-115.017h669.187c63.431 0 115.017 51.586 115.017 115.017v501.891c0 63.429-51.586 115.014-115.017 115.014zM846.593 95.913h-669.187c-28.836 0-52.281 23.444-52.281 52.281l0 211.293c105.196-74.844 242.373-117.189 386.874-117.189 144.478 0 281.629 42.351 386.874 117.206v-211.312c-0.001-28.835-23.445-52.28-52.281-52.28zM480.632 440.962v52.281h-52.281c-17.317 0-31.368 14.050-31.368 31.368s14.050 31.368 31.368 31.368h52.281v52.281c0 17.317 14.050 31.368 31.368 31.368s31.368-14.050 31.368-31.368v-52.281h52.281c17.317 0 31.368-14.050 31.368-31.368s-14.050-31.368-31.368-31.368h-52.281v-52.281c0-17.317-14.050-31.368-31.368-31.368s-31.368 14.051-31.368 31.368zM302.874 190.018c0-23.097-18.724-41.825-41.825-41.825s-41.825 18.727-41.825 41.825c0 23.1 18.724 41.825 41.825 41.825s41.825-18.725 41.825-41.825zM804.764 190.018c0-23.097-18.724-41.825-41.825-41.825s-41.825 18.727-41.825 41.825c0 23.1 18.724 41.825 41.825 41.825 23.1-0.001 41.825-18.725 41.825-41.825z"  horiz-adv-x="1024" />

    
    <glyph glyph-name="jiankangxuanjiao" unicode="&#58915;" d="M241.034 451.388c63.365 0 114.906 51.541 114.906 114.886 0 63.426-51.541 115.008-114.906 115.008-63.466 0-115.11-51.541-115.11-114.926s51.642-114.967 115.11-114.967zM241.034 618.55c28.772 0 52.174-23.443 52.174-52.277 0-28.752-23.402-52.154-52.174-52.154-28.875 0-52.379 23.443-52.379 52.236s23.504 52.195 52.379 52.195zM571.375 210.59l94.915 155.768c12.727 21.12 12.773 46.362 2.521 67.081l38.564 77.128c7.739 15.479 1.47 34.306-14.029 42.066-15.458 7.678-34.306 1.511-42.087-14.049l-33.763-67.525c-27.003 3.816-55.84-8.24-70.647-32.209l-59.832-98.263-79.088 44.189c-46.64 28.711-83.989 49.050-139.941 49.050-6.923 0-14.131-0.326-18.951-0.858l-25.363-0.205c-132.080-15.438-163.181-109.004-161.199-154.991l-0.020-213.23c0-8.332 3.308-16.295 9.189-22.177s13.866-9.189 22.177-9.189h258.053c17.316 0 31.365 14.049 31.365 31.365l0.020 164.507 94.343-42.924c31.365-17.805 74.922-6.369 93.771 24.465zM364.904 306.321c-9.7 4.41-20.972 3.594-29.977-2.164-8.964-5.758-14.397-15.724-14.397-26.383l-0.020-181.865h-195.322v182.844c-0.164 8.127 1.47 79.517 102.123 91.484l24.464 0.123c49.723 4.33 78.007-11.15 124.422-39.656l106.595-59.587c14.641-8.332 33.326-3.349 42.087 11.027l75.494 123.952c1.961 3.186 5.249 3.471 9.782 2.492 3.37-2.043 4.451-6.494 2.471-9.72l-94.812-155.604c-1.532-2.492-4.145-3.39-6.065-3.39l-146.844 66.448zM961.61 650.038v-501.853c0-63.426-51.582-115.008-115.008-115.008l-376.389 0c-17.316 0-31.365 14.049-31.365 31.365s14.049 31.365 31.365 31.365h376.389c28.834 0 52.277 23.443 52.277 52.277l0 501.854c0 28.834-23.443 52.277-52.277 52.277l-460.031 0c-17.316 0-31.365 14.049-31.365 31.365s14.049 31.365 31.365 31.365h460.032c63.426 0 115.007-51.582 115.007-115.007z"  horiz-adv-x="1024" />

    
    <glyph glyph-name="jiuyiliucheng" unicode="&#58916;" d="M807.107 213.723h-59.442c0.537 2.295 1.399 4.471 1.399 6.929l-0 126.563c0 17.283-14.021 31.304-31.304 31.304h-177.39v70.638h87.879c40.271 0 73.043 32.771 73.043 73.043v74.592c0 17.283-14.021 31.304-31.304 31.304s-31.304-14.021-31.304-31.304v-74.592c0-5.747-4.688-10.435-10.435-10.435l-238.369-0c-5.747 0-10.435 4.688-10.435 10.435v238.369c0 5.747 4.688 10.435 10.435 10.435h238.368c5.747 0 10.435-4.688 10.435-10.435v-37.704c0-17.283 14.021-31.304 31.304-31.304s31.304 14.021 31.304 31.304v37.704c0 40.271-32.771 73.043-73.043 73.043h-238.368c-40.271 0-73.043-32.771-73.043-73.043v-238.368c0-40.271 32.771-73.043 73.043-73.043h87.879v-70.638h-177.39c-17.283 0-31.304-14.021-31.304-31.304v-128.682c0-1.707 0.708-3.176 0.971-4.81h-53.144c-40.271 0-73.043-32.771-73.043-73.043v-133.247c0-40.271 32.771-73.043 73.043-73.043h133.206c40.271 0 73.043 32.771 73.043 73.043l-0 133.245c0 40.271-32.771 73.043-73.043 73.043h-19.395c0.262 1.633 0.97 3.103 0.97 4.81v97.377h354.78v-95.258c0-2.458 0.861-4.634 1.399-6.929h-13.953c-40.271 0-73.043-32.771-73.043-73.043v-133.247c0-40.271 32.771-73.043 73.043-73.043h133.206c40.271 0 73.043 32.771 73.043 73.043v133.247c0.001 40.272-32.77 73.044-73.042 73.044zM360.533 140.679v-133.247c0-5.747-4.688-10.435-10.435-10.435l-133.206 0c-5.747 0-10.435 4.688-10.435 10.435l-0 133.247c0 5.747 4.688 10.435 10.435 10.435h133.206c5.747 0 10.435-4.687 10.435-10.435zM817.542 7.434c0-5.747-4.688-10.435-10.435-10.435l-133.206 0c-5.747 0-10.435 4.688-10.435 10.435v133.246c0 5.747 4.688 10.435 10.435 10.435h133.206c5.747 0 10.435-4.688 10.435-10.435l0-133.246z"  horiz-adv-x="1024" />

    
    <glyph glyph-name="rencaizhaopin" unicode="&#58917;" d="M737.89 189.671c0-20.126-16.329-36.454-36.454-36.454s-36.454 16.329-36.454 36.454c0 70.061-41.581 133.857-105.899 162.479-11.961 5.364-20.126 16.709-21.408 29.762-1.281 13.053 4.51 25.774 15.237 33.322 30.568 21.598 48.796 56.628 48.796 93.605 0 63.273-51.502 114.775-114.775 114.775s-114.775-51.502-114.775-114.775c0-37.024 18.227-72.007 48.796-93.605 10.727-7.547 16.518-20.269 15.237-33.322s-9.446-24.398-21.455-29.762c-64.318-28.623-105.899-92.418-105.899-162.479 0-20.126-16.329-36.454-36.454-36.454-20.126 0-36.454 16.329-36.454 36.454 0 81.216 39.54 156.403 103.904 203.016-25.964 32.752-40.584 73.621-40.584 116.151 0 103.478 84.206 187.684 187.684 187.684s187.684-84.206 187.684-187.684c0-42.531-14.62-83.399-40.584-116.151 64.365-46.613 103.857-121.8 103.857-203.016zM950.636-3.044l-119.474 116.626c67.403 78.89 104.474 179.473 104.474 283.377 0 240.752-195.849 436.648-436.6 436.648s-436.647-195.897-436.647-436.649 195.896-436.6 436.648-436.6c14.952 0 29.715 0.712 44.287 2.231 20.031 2.089 34.556 19.983 32.515 40.014-2.041 19.983-19.461 34.745-40.014 32.515-12.104-1.234-24.398-1.851-36.787-1.851-200.548 0-363.738 163.144-363.738 363.691s163.191 363.738 363.738 363.738 363.691-163.191 363.691-363.738c0-87.007-31.185-171.212-85.298-234.343l-23.685-22.404c-7.215-6.836-11.297-16.281-11.392-26.202-0.095-9.921 3.893-19.461 10.965-26.391l146.339-142.876c7.12-6.883 16.281-10.348 25.49-10.348 9.493 0 18.939 3.655 26.107 10.965 14.051 14.431 13.766 37.499-0.617 51.597z"  horiz-adv-x="1024" />

    
    <glyph glyph-name="tijianxuzhi" unicode="&#58918;" d="M852.36 468.521c19.408 0 35.154 15.746 35.154 35.154v210.559c0 65.822-53.555 119.377-119.377 119.377h-510.878c-65.822 0-119.377-53.555-119.377-119.377v-660.465c0-65.822 53.555-119.377 119.377-119.377h407.613c9.18 0 17.385 3.717 23.648 9.484l0.177-0.191 187.488 172.703c0.218 0.201 0.332 0.472 0.543 0.678 0.655 0.632 1.079 1.421 1.682 2.103 2.168 2.457 3.985 5.078 5.369 7.964 0.561 1.158 0.961 2.323 1.396 3.548 1.067 3.035 1.679 6.128 1.888 9.344 0.051 0.776 0.449 1.436 0.449 2.226l-0 192.978c0 19.408-15.746 35.154-35.154 35.154s-35.154-15.746-35.154-35.154v-157.827l-152.332 0c-19.408 0-35.154-15.746-35.154-35.154v-137.55h-372.46c-27.052 0-49.070 22.017-49.070 49.070l0 660.465c0 27.052 22.017 49.070 49.070 49.070h510.877c27.052 0 49.070-22.017 49.070-49.070v-210.559c0.001-19.408 15.747-35.154 35.155-35.154zM700.025 107.093h62.275l-62.275-57.354v57.354zM512.698 554.758c19.408 0 35.154-15.746 35.154-35.154v-234.361c0-19.408-15.747-35.154-35.154-35.154-19.408 0-35.154 15.746-35.154 35.154v234.361c-0.001 19.408 15.746 35.154 35.154 35.154zM547.852 628.974c0-19.336-15.82-35.154-35.154-35.154-19.333 0-35.154 15.817-35.154 35.154 0 19.333 15.82 35.154 35.154 35.154 19.333 0 35.154-15.82 35.154-35.154z"  horiz-adv-x="1024" />

    
    <glyph glyph-name="wenxintishi" unicode="&#58919;" d="M790.514 379.426c-22.627-136.704-139.768-235.915-278.515-235.915-155.656 0-282.314 126.657-282.314 282.314s126.657 282.314 282.314 282.314c99.25 0 192.334-53.056 242.981-138.46 8.822-14.908 3.88-34.146-10.987-43.009-14.948-8.781-34.146-3.921-43.009 10.987-39.374 66.454-111.79 107.746-188.985 107.746-121.061 0-219.577-98.516-219.577-219.577s98.517-219.578 219.578-219.578c107.91 0 199.033 77.113 216.595 183.39 2.859 17.114 19.237 28.631 36.065 25.854 17.114-2.859 28.672-18.993 25.854-36.065zM512 729.050c17.317 0 31.368 14.050 31.368 31.368v41.825c0 17.317-14.050 31.368-31.368 31.368s-31.368-14.050-31.368-31.368v-41.825c0-17.318 14.050-31.368 31.368-31.368zM721.121 687.226c8.046 0 16.052 3.064 22.178 9.19l41.825 41.825c12.253 12.253 12.253 32.103 0 44.356s-32.103 12.253-44.356 0l-41.825-41.826c-12.253-12.253-12.253-32.103 0-44.356 6.127-6.127 14.132-9.189 22.178-9.189zM280.7 696.415c6.127-6.127 14.132-9.19 22.178-9.19 8.046 0 16.052 3.064 22.178 9.19 12.253 12.253 12.253 32.103 0 44.356l-41.825 41.825c-12.253 12.253-32.103 12.253-44.356 0-12.253-12.253-12.253-32.103 0-44.356l41.825-41.825zM679.296 110.836h-334.593c-17.317 0-31.368-14.050-31.368-31.368s14.050-31.368 31.368-31.368h334.593c17.317 0 31.368 14.050 31.368 31.368s-14.050 31.368-31.368 31.368zM595.648-2.873h-167.296c-17.317 0-31.368-14.050-31.368-31.368 0-17.317 14.050-31.368 31.368-31.368h167.297c17.317 0 31.368 14.050 31.368 31.368-0.001 17.317-14.052 31.368-31.369 31.368z"  horiz-adv-x="1024" />

    
    <glyph glyph-name="yiliaoshebei" unicode="&#58920;" d="M930.242 535.067c17.317 0 31.368 14.050 31.368 31.368v83.648c0 63.431-51.586 115.017-115.017 115.017l-669.187-0c-63.431 0-115.017-51.586-115.017-115.017v-501.891c0-63.431 51.586-115.017 115.017-115.017h669.187c63.431 0 115.017 51.586 115.017 115.017v250.945c0 17.317-14.050 31.368-31.368 31.368s-31.368-14.050-31.368-31.368v-109.787h-773.747v360.734c0 28.836 23.444 52.281 52.281 52.281h669.187c28.836 0 52.281-23.444 52.281-52.281v-83.648c-0.001-17.318 14.050-31.369 31.367-31.369zM898.873 226.613v-78.42c0-28.836-23.444-52.281-52.281-52.281l-669.186-0c-28.836 0-52.281 23.444-52.281 52.281v78.42l773.747 0zM773.32 477.232c17.317 0 31.368-14.050 31.368-31.368 0-17.317-14.050-31.368-31.368-31.368h-96.555c-10.864 0-20.994 5.636-26.712 14.909l-19.768 32.021-73.519-122.123c-5.718-9.517-15.97-15.194-26.875-15.194-1.266 0-2.574 0.082-3.88 0.246-12.294 1.552-22.545 10.171-26.14 22.055l-51.79 171.381-21.77-82.75c-3.635-13.764-16.093-23.363-30.347-23.363l-145.282 0c-17.317 0-31.368 14.050-31.368 31.368s14.050 31.368 31.368 31.368h121.102l43.866 166.684c3.594 13.56 15.766 23.118 29.775 23.363 13.479-0.531 26.549-8.822 30.592-22.301l63.472-209.937 63.594 105.664c5.635 9.394 15.766 15.153 26.712 15.194 0.041 0 0.123 0 0.164 0 10.864 0 20.994-5.636 26.712-14.909l37.618-60.939h79.032zM187.863 148.193c0 17.317 14.050 31.368 31.368 31.368h83.648c17.317 0 31.368-14.050 31.368-31.368s-14.050-31.368-31.368-31.368h-83.648c-17.318 0-31.368 14.050-31.368 31.368zM396.983 148.193c0 17.317 14.050 31.368 31.368 31.368h83.648c17.317 0 31.368-14.050 31.368-31.368s-14.050-31.368-31.368-31.368h-83.648c-17.318 0-31.368 14.050-31.368 31.368zM721.121 148.193c0 23.1 18.724 41.825 41.825 41.825s41.825-18.724 41.825-41.825c0-23.097-18.724-41.825-41.825-41.825-23.1 0-41.825 18.728-41.825 41.825z"  horiz-adv-x="1024" />

    
    <glyph glyph-name="yiyaotiandi" unicode="&#58921;" d="M877.342 349.007l-430.625 430.625c-34.815 34.815-81.278 53.978-130.766 53.978-49.532 0-95.995-19.163-130.81-53.978l-38.549-38.594c-34.815-34.815-54.022-81.234-54.022-130.81 0-49.532 19.208-95.951 54.022-130.766l430.581-430.581c34.815-34.815 81.234-54.022 130.81-54.022 49.532 0 95.951 19.208 130.766 54.022l38.594 38.55c72.118 72.12 72.118 189.458-0.001 261.577zM829.055 135.718l-38.594-38.55c-43.84-43.886-121.162-43.796-165.002 0l-430.581 430.581c-21.92 21.92-34.015 51.222-34.015 82.478 0 31.302 12.094 60.603 34.015 82.524l38.55 38.594c21.92 21.92 51.222 33.97 82.524 33.97 31.258 0 60.558-12.049 82.478-33.97l430.625-430.625c45.485-45.486 45.485-119.516 0-165.002zM513.678 544.734l64.382-64.382-128.765-128.766-193.148 193.192c-35.57 35.57-35.57 93.239 0 128.765 35.57 35.57 93.195 35.57 128.765 0l128.766-128.809zM304.943 249.196c40.77-40.77 40.77-106.87 0-147.64-40.77-40.767-106.87-40.767-147.636 0-40.77 40.77-40.77 106.87 0 147.64 40.767 40.767 106.867 40.767 147.636 0zM500.401 34.879c22.988-22.988 22.988-60.258 0-83.246-22.991-22.991-60.261-22.991-83.249 0-22.991 22.988-22.991 60.258 0 83.246 22.988 22.991 60.258 22.991 83.249 0zM754.721 634.585c-22.988 22.988-22.988 60.258 0 83.246 22.991 22.991 60.261 22.991 83.249 0 22.991-22.988 22.991-60.258 0-83.246-22.988-22.99-60.259-22.99-83.249 0z"  horiz-adv-x="1024" />

    
    <glyph glyph-name="yiyuanxinwen" unicode="&#59214;" d="M955.979814 353.7173l-10.226922 65.852824c-2.774183 17.744129-19.310811 29.602202-37.139875 27.146267-17.744129-2.752694-29.898961-19.395746-27.146267-37.139875l10.565636-67.928089c0.25378-1.651616 0.635473-3.261277 1.143033-4.827959 0.105401-0.338714 10.184967-35.700083-5.675256-63.820538-10.184967-18.082844-29.982872-30.788214-57.954947-37.563524-13.043061-2.752694-354.88566-88.806605-496.056889-124.33682 0.275269 15.711843-1.334391 34.55705-5.610788 57.256028-10.54517 71.485101-47.728024 304.109206-61.511959 390.120139l578.150606 88.721671 9.634428-62.042032c2.774183-17.787108 19.565615-29.898961 37.139875-27.146267 17.744129 2.752694 29.898961 19.395746 27.146267 37.139875l-14.631232 94.100168c-2.752694 17.702174-19.332301 29.687136-37.07643 27.146267l-642.585127-98.588389c-8.55484-1.312902-16.240893-5.970992-21.344121-13.001105-5.103228-6.987135-7.198959-15.753799-5.844102-24.308639 0 0 4.806469-29.93273 11.828396-73.833589l-80.286558-20.139689-43.344181-13.636578c-9.380648-2.964518-16.918321-9.994632-20.518313-19.183921-3.599991-9.147334-2.837628-19.438725 2.032286-27.992541 13.573133-23.7581 63.078641-167.236885 92.300172-267.476891 40.210817-102.696963 73.306586-124.252909 112.056122-124.760468 1.503237-0.211824 3.006474-0.296759 4.489244-0.296759 1.744737 0 3.340071 0.613984 5.028527 0.886183 1.935072-0.360204 3.832282-0.886183 5.833869-0.886183 2.647293 0 5.315052 0.296759 7.961322 0.974188 147.586336 37.182854 533.853727 134.416386 549.607526 137.846508 47.092551 11.391445 80.823793 34.641985 100.219539 69.029166C971.204563 289.008532 959.706695 340.419436 955.979814 353.7173zM139.319046 421.772278l79.772858 20.341281c16.381086-102.736872 37.09792-233.438657 44.648896-284.556894 5.77247-30.514991 5.219885-48.254004 3.710508-58.008158-11.579733 4.804423-29.387307 35.072797-46.970778 79.606059C200.217021 249.072985 163.478282 360.917282 139.319046 421.772278zM367.580796 445.700247c-15.309684 0-28.945239 10.840906-31.909757 26.425859-3.366677 17.659195 8.216125 34.68394 25.875321 38.029128l211.406874 40.274262c17.553795 3.599991 34.68394-8.173147 38.029128-25.833365 3.366677-17.659195-8.216125-34.68394-25.875321-38.029128l-211.406874-40.274262C371.646392 445.869093 369.613082 445.700247 367.580796 445.700247zM763.037477 405.552875l-379.575991-83.004459c-2.329045-0.508583-4.679579-0.762363-6.966669-0.762363-14.969946 0-28.41619 10.375302-31.761378 25.578562-3.832282 17.532305 7.283894 34.895765 24.837688 38.70758l379.575991 83.004459c17.447371 3.980661 34.853809-7.283894 38.728046-24.816199C791.707446 426.727127 780.590248 409.364691 763.037477 405.552875zM610.728582 281.004231c4.002151-17.49035-6.945179-34.93772-24.457018-38.96136l-185.002504-42.264593c-2.435469-0.550539-4.869914-0.804319-7.262404-0.804319-14.843056 0-28.247344 10.206456-31.677467 25.282826-4.002151 17.49035 6.945179 34.93772 24.457018 38.96136l185.002504 42.264593C589.426417 309.420421 606.747921 298.494581 610.728582 281.004231z"  horiz-adv-x="1024" />

    
    <glyph glyph-name="zaixianduanlian" unicode="&#59215;" d="M821.013913 707.639005c-17.33583 0-31.401174-14.065344-31.401174-31.401174l0-26.780947L575.410192 649.456884c11.493775 18.482957 18.436908 40.089044 18.436908 63.415308 0 66.562998-54.174853 120.737852-120.737852 120.737852S352.370373 779.435191 352.370373 712.872193c0-21.488407 6.105045-41.392736 15.981996-58.892295-1.699712-0.232291-3.367701 0.007163-5.064342-0.515746l-169.027671-52.664454c-0.053212-0.01535-0.104377-0.035816-0.160659-0.051165l-0.61296-0.191358c-1.175779-0.36532-2.00875-1.216711-3.107781-1.701758-2.578732-1.131777-5.146207-2.223644-7.356548-4.02978-1.850138-1.512447-3.109828-3.483334-4.553713-5.350868-0.986467-1.269923-2.292206-2.184759-3.094478-3.63683-0.066515-0.11768-0.053212-0.252757-0.11768-0.373507-1.308809-2.420119-1.857301-5.135974-2.496867-7.829316-0.303922-1.300622-1.019213-2.527566-1.152243-3.840468-0.11461-1.106194 0.283456-2.24411 0.288572-3.365654 0.020466-2.987031 0.058328-5.966898 0.907673-8.80862 0.035816-0.11768 0-0.237407 0.035816-0.355087 1.109264-3.575432 2.864234-6.741541 5.000897-9.562796 0.503467-0.667196 1.218758-1.147126 1.778506-1.77646 2.010797-2.249227 4.226255-4.195555 6.758937-5.767354 0.452301-0.281409 0.708128-0.743944 1.180895-1.006933l117.876688-65.594951 0-78.530564c0-31.127951 10.141988-59.788711 26.972305-83.377966L234.69937 262.383128c-0.703011-0.38374-1.104147-1.052982-1.766226-1.481747-1.781576-1.155313-3.26537-2.527566-4.786003-4.022617-1.484817-1.456165-2.894933-2.857071-4.043083-4.548596-1.052982-1.530866-1.768273-3.184529-2.539846-4.903683-0.921999-2.065032-1.715061-4.068665-2.174526-6.281053-0.163729-0.774643-0.653893-1.39272-0.759293-2.189875l-34.753525-261.59288c-2.290159-17.172101 9.771551-32.954553 26.985608-35.244712 1.38965-0.204661 2.780323-0.286526 4.169973-0.286526 15.495926 0 28.988218 11.488659 31.073716 27.27111l32.652677 245.779729L383.181099 271.806755c19.983123-10.489912 42.3659-16.98893 66.458621-16.98893 24.230867 0 46.731324 6.572696 66.796312 17.172101l110.409622-59.375296L729.590713-45.820326c4.906753-12.307304 16.72287-19.788695 29.192879-19.788695 3.88447 0 7.809873 0.694825 11.611455 2.208295 16.108886 6.4192 23.959691 24.695448 17.581424 40.805358L681.017438 246.436948c-0.575098 1.449002-1.694595 2.440585-2.450818 3.748371-1.068332 1.868557-2.036379 3.707438-3.485381 5.338588-1.517563 1.701758-3.304256 2.935865-5.125741 4.249791-1.152243 0.841158-1.954515 1.998517-3.247974 2.691295l-99.546204 53.53324c16.668635 23.52274 26.685779 52.063773 26.685779 83.027995 0 17.33583-14.065344 31.401174-31.401174 31.401174s-31.401174-14.065344-31.401174-31.401174c0-44.893466-36.511565-81.405031-81.405031-81.405031-16.924461 0-32.642444 5.207605-45.678342 14.077623-0.457418 0.388856-0.884137 0.76441-1.362021 1.124614-20.723997 14.770402-34.365692 38.868239-34.365692 66.202795l0 43.582611 35.775808-19.909445c4.824889-2.698458 10.058077-3.966335 15.2094-3.966335 11.039427 0 21.751397 5.806239 27.475771 16.149818 8.422833 15.128559 2.984984 34.263361-12.184507 42.686195l-66.277496 36.882002 0 16.352433c0 32.507368 20.228717 62.23953 50.319036 74.93262 16.464997-8.429996 34.828226-13.643742 54.555523-13.643742 8.984628 0 17.678638 1.150196 26.108634 3.0208 20.184715-15.620769 31.827893-38.998199 31.827893-64.309678 0-17.33583 14.065344-31.401174 31.401174-31.401174s31.401174 14.065344 31.401174 31.401174c0 19.656689-4.594645 38.380122-11.992125 55.851029l239.158938 0c17.33583 0 31.401174 14.065344 31.401174 31.401174l0 58.182121C852.415087 693.573661 838.349743 707.639005 821.013913 707.639005zM282.061051 562.406273l29.54285 9.204639c-2.249227-7.472182-3.784186-15.161305-4.786003-22.983457L282.061051 562.406273zM415.172721 712.872193c0 31.93227 26.004257 57.936527 57.936527 57.936527s57.936527-26.004257 57.936527-57.936527c0-31.973202-26.004257-57.977459-57.936527-57.977459S415.172721 680.89899 415.172721 712.872193z"  horiz-adv-x="1024" />

    
    <glyph glyph-name="danxuanxuanzhong" unicode="&#59216;" d="M948.96505 488.19713c49.051159-205.40723-54.090942-419.971004-245.254773-510.242983-60.931744-28.800953-126.092813-43.245943-191.524035-43.245943-51.121308 0-102.421694 8.819876-151.968134 26.595728-112.952538 40.500413-203.40462 122.582873-254.614955 231.124961-51.212382 108.542088-57.106626 230.494605-16.60519 343.469656S211.533764 739.302145 320.076876 790.536017c144.18282 68.064188 315.411623 54.090942 446.769346-36.383652 15.750729-10.822486 19.710924-32.333406 8.909927-48.060599-10.844999-15.705704-32.310893-19.732413-48.060599-8.864902-111.242594 76.546374-256.145821 88.381933-378.098337 30.803563-91.846848-43.358507-161.28329-119.859855-195.574281-215.464283-34.245965-95.581915-29.250184-198.814068 14.084787-290.61589 43.335994-91.846848 119.882368-161.28329 215.464283-195.574281 95.53689-34.290991 198.814068-29.250184 290.61589 14.040784 161.77857 76.411297 249.079892 257.945817 207.543893 431.716512-4.455475 18.562774 7.019881 37.2156 25.605168 41.648562C925.879262 518.370337 944.5546 506.759905 948.96505 488.19713zM306.036092 453.163219c-13.59053 13.320377-35.46063 12.982686-48.871057-0.607844-13.320377-13.680581-13.050224-35.550681 0.630357-48.89357l188.958606-184.324052c2.073218-2.016937 4.598738-3.149736 6.997368-4.545526 1.457188-0.852414 2.705622-2.140757 4.249791-2.758834 4.129041-1.656733 8.502651-2.506077 12.873192-2.506077 4.460592 0 8.904811 0.871857 13.087063 2.581802 1.465374 0.598634 2.635013 1.864464 4.021593 2.671852 2.52245 1.471514 5.160533 2.705622 7.326872 4.870938L951.48443 675.828508c13.500479 13.500479 13.500479 35.370579 0 48.871057s-35.370579 13.500479-48.871057 0L470.576565 292.661735 306.036092 453.163219z"  horiz-adv-x="1024" />

    
    <glyph glyph-name="fuxuan" unicode="&#58922;" d="M871.628-127.556h-720.255c-83.511 0-151.429 67.918-151.429 151.429v720.255c0 83.511 67.918 151.429 151.429 151.429h720.255c83.511 0 151.429-67.918 151.429-151.429 0-22.8-18.498-41.299-41.299-41.299-22.8 0-41.299 18.498-41.299 41.299 0 37.966-30.867 68.831-68.831 68.831h-720.257c-37.966 0-68.831-30.867-68.831-68.831v-720.255c0-37.964 30.867-68.831 68.831-68.831h720.255c37.966 0 68.831 30.867 68.831 68.831v495.584c0 22.8 18.498 41.299 41.299 41.299s41.299-18.498 41.299-41.299v-495.585c0.001-83.511-67.915-151.428-151.428-151.428z"  horiz-adv-x="1024" />

    
    <glyph glyph-name="guan" unicode="&#58923;" d="M772.449 428.697h-520.899c-104.469 0-189.161-84.689-189.161-189.163v-17.195c0-104.473 84.691-189.163 189.161-189.163h520.899c104.471 0 189.161 84.689 189.161 189.163v17.195c-0 104.474-84.689 189.163-189.161 189.163zM258.904 85.569c-80.283 0-145.367 65.083-145.367 145.368 0 80.283 65.083 145.367 145.367 145.367 80.285 0 145.368-65.083 145.368-145.367 0-80.285-65.082-145.368-145.368-145.368z"  horiz-adv-x="1024" />

    
    <glyph glyph-name="kai" unicode="&#58924;" d="M251.55 33.177h520.899c104.469 0 189.161 84.689 189.161 189.163v17.195c0 104.473-84.691 189.163-189.161 189.163l-520.899 0c-104.471 0-189.161-84.689-189.161-189.163v-17.195c0.001-104.474 84.69-189.163 189.161-189.163zM765.095 376.304c80.283 0 145.367-65.083 145.367-145.368 0-80.283-65.083-145.367-145.367-145.367-80.285 0-145.368 65.083-145.368 145.367 0 80.286 65.083 145.368 145.368 145.368z"  horiz-adv-x="1024" />

    
    <glyph glyph-name="paidui" unicode="&#58925;" d="M961.61 304.83v-240.285c0-17.317-14.050-31.368-31.368-31.368h-294.077c-17.317 0-31.368 14.050-31.368 31.368 0 17.317 14.050 31.368 31.368 31.368h41.62v208.916c0 70.211-44.602 134.499-110.972 159.986-10.987 4.207-18.666 14.214-19.932 25.854-1.307 11.681 4.043 23.118 13.846 29.611 27.978 18.461 44.643 49.422 44.643 82.75 0 54.771-44.561 99.332-99.332 99.332s-99.332-44.561-99.332-99.332c0-33.329 16.665-64.288 44.643-82.75 9.802-6.494 15.153-17.93 13.846-29.611-1.266-11.64-8.945-21.647-19.932-25.854-66.413-25.486-111.013-89.775-111.013-159.986v-208.917h133.314c17.318 0 31.368-14.050 31.368-31.368 0-17.317-14.050-31.368-31.368-31.368h-373.804c-17.317 0-31.368 14.050-31.368 31.368l0 240.286c0 79.85 42.028 154.023 108.236 196.704-22.873 28.387-35.779 64.003-35.779 101.498 0 89.366 72.702 162.069 162.069 162.069 17.317 0 31.368-14.050 31.368-31.368s-14.050-31.368-31.368-31.368c-54.771 0-99.332-44.561-99.332-99.332 0-33.329 16.665-64.288 44.643-82.75 9.802-6.494 15.153-17.93 13.846-29.611-1.266-11.64-8.945-21.647-19.932-25.854-66.413-25.486-111.013-89.775-111.013-159.986v-208.917h146.385l0 208.916c0 79.85 42.028 154.023 108.236 196.704-22.873 28.387-35.779 64.003-35.779 101.498 0 89.366 72.702 162.069 162.069 162.069s162.069-72.702 162.069-162.069c0-37.495-12.907-73.111-35.779-101.498 66.167-42.682 108.195-116.854 108.195-196.704v-208.917h158.352l-0 208.917c0 70.211-44.602 134.499-111.013 159.986-10.987 4.207-18.666 14.214-19.932 25.854-1.307 11.681 4.043 23.118 13.846 29.611 27.978 18.461 44.643 49.422 44.643 82.75 0 54.771-44.561 99.332-99.332 99.332-17.317 0-31.368 14.050-31.368 31.368s14.050 31.368 31.368 31.368c89.366 0 162.069-72.702 162.069-162.069 0-37.495-12.907-73.111-35.779-101.498 66.203-42.68 108.231-116.853 108.231-196.703zM517.677 366.464h-32.675v32.675c0 17.317-14.050 31.368-31.368 31.368-17.317 0-31.368-14.050-31.368-31.368v-32.675h-32.716c-17.317 0-31.368-14.050-31.368-31.368s14.050-31.368 31.368-31.368h32.716v-32.716c0-17.317 14.050-31.368 31.368-31.368 17.317 0 31.368 14.050 31.368 31.368v32.716h32.675c17.317 0 31.368 14.050 31.368 31.368s-14.051 31.368-31.368 31.368z"  horiz-adv-x="1024" />

    
    <glyph glyph-name="tesekeshi" unicode="&#58926;" d="M629.372 514.157c-14.43-13.895-23.562-41.44-20.292-61.203l6.114-36.991c3.269-19.765-8.518-28.223-26.197-18.794l-33.079 17.647c-17.676 9.426-46.691 9.6-64.48 0.385l-33.287-17.247c-17.789-9.218-29.476-0.618-25.969 19.105l6.559 36.915c3.504 19.723-5.299 47.373-19.56 61.442l-26.688 26.33c-14.264 14.069-9.697 27.839 10.145 30.603l37.133 5.17c19.842 2.761 43.419 19.676 52.392 37.586l16.793 33.521c8.973 17.91 23.483 17.823 32.24-0.192l16.391-33.719c8.757-18.017 32.132-35.214 51.94-38.212l37.067-5.615c19.808-2.998 24.208-16.823 9.779-30.721l-27.002-26.009zM861.374-1.889c-8.044-8.928-20.257-12.804-31.966-9.814l-67.597 16.889-39.968-57.025c-6.107-8.676-16.046-13.772-26.491-13.772-1.348 0-2.737 0.084-4.085 0.253-11.918 1.517-22.027 9.518-26.239 20.763l-100.457 269.161c-13.143-1.696-26.446-2.861-40.042-2.861-21.834 0-43.103 2.392-63.653 6.76l-101.905-273.060c-4.212-11.245-14.319-19.247-26.239-20.763-1.348-0.169-2.737-0.253-4.085-0.253-10.445 0-20.384 5.096-26.491 13.772l-39.968 57.025-67.597-16.889c-11.709-2.99-23.922 0.884-31.966 9.814-8.002 8.97-10.361 21.605-6.191 32.892l119.244 319.303c-35.81 50.089-57.123 111.21-57.123 177.33 0 168.717 137.256 305.974 305.974 305.974 115.229 0 219.551-63.679 272.238-166.232 8.17-15.878 1.895-35.378-13.982-43.548-15.836-8.255-35.378-1.895-43.548 13.982-41.569 80.863-123.821 131.107-214.708 131.107-133.045 0-241.283-108.238-241.283-241.283 0-133.002 108.238-241.24 241.283-241.24 119.694 0 219.93 85.664 238.335 203.674 2.737 17.605 19.331 29.649 36.935 26.997 17.647-2.779 29.734-19.289 26.997-36.936-9.11-58.362-34.122-110.339-70.060-152.221l110.828-296.905c4.169-11.287 1.81-23.922-6.191-32.893zM399.355 248.773c-27.27 12.29-52.384 28.428-74.722 47.775l-86.072-230.588 29.523 7.37c13.013 3.412 26.617-1.853 34.325-12.804l17.436-24.891 79.51 213.137zM785.439 65.961l-80.049 214.387c-23.477-17.125-49.479-30.866-77.325-40.758l76.091-203.952 17.436 24.891c7.708 10.95 21.31 16.172 34.325 12.804l29.522-7.371z"  horiz-adv-x="1024" />

    
    <glyph glyph-name="xuanzhong" unicode="&#58927;" d="M512.816-65.455c-157.924 0-311.343 83.196-393.593 230.625-120.718 216.594-42.793 491.047 173.779 611.809 184.86 102.993 419.628 62.003 558.274-97.565 12.522-14.414 10.99-36.26-3.423-48.782-14.459-12.5-36.26-11.058-48.827 3.423-117.295 134.997-315.894 169.658-472.332 82.475-183.238-102.16-249.182-334.384-147.024-517.667 102.16-183.238 334.451-249.183 517.69-147.024 156.392 87.205 231.3 274.408 178.103 445.124-5.676 18.242 4.505 37.634 22.747 43.309 18.423 5.72 37.657-4.505 43.287-22.725 62.881-201.797-25.63-423.097-210.445-526.157-69.142-38.557-144.185-56.846-218.236-56.846z"  horiz-adv-x="1024" />

    
    <glyph glyph-name="yajinbujiao" unicode="&#58928;" d="M956.433 291.325c-43.355-206.834-228.359-356.935-439.931-356.935-247.923 0-449.61 201.688-449.61 449.61s201.688 449.61 449.61 449.61c211.572 0 396.574-150.102 439.931-356.935 3.554-16.991-7.312-33.615-24.262-37.168-16.807-3.431-33.594 7.312-37.128 24.262-37.311 177.957-196.5 307.105-378.541 307.105-213.328 0-386.874-173.546-386.874-386.874s173.546-386.874 386.874-386.874c182.041 0 341.231 129.148 378.541 307.105 3.533 16.991 20.32 27.733 37.128 24.262 16.951-3.553 27.816-20.177 24.262-37.168zM574.828 174.879v149.897h-27.876c-50.238 0-91.102 40.885-91.102 91.122v78.007c-4.104-12.547-15.515-21.765-29.428-21.765h-28.387v-63.834c5.7 1.346 11.559 2.961 17.665 5.182 16.256 5.8 34.268-2.451 40.19-18.747 5.942-16.297-2.471-34.309-18.747-40.231-13.652-4.972-26.735-8.186-39.108-10.185v-169.446c0-17.317-14.050-31.368-31.368-31.368-17.317 0-31.368 14.050-31.368 31.368l-0 169.055c-25.155 3.841-40.865 11.25-42.131 11.883-15.561 7.597-22.014 26.385-14.418 41.946 7.556 15.48 26.222 21.974 41.681 14.54 0.728-0.324 6.164-2.617 14.868-4.677v64.513h-28.366c-17.317 0-31.368 14.050-31.368 31.368 0 17.317 14.050 31.368 31.368 31.368h28.366v58.244c0 17.317 14.050 31.368 31.368 31.368 17.317 0 31.368-14.050 31.368-31.368v-58.244h28.387c13.913 0 25.323-9.218 29.428-21.765l-0 19.559c0 50.238 40.865 91.122 91.102 91.122h55.808c1.182 0.135 2.215 0.695 3.436 0.695s2.254-0.559 3.436-0.695h55.788c17.317 0 31.368-14.050 31.368-31.368s-14.050-31.368-31.368-31.368h-27.856v-56.079h56.242v27.694c0 17.317 14.050 31.368 31.368 31.368s31.368-14.050 31.368-31.368v-116.773c0-50.238-40.885-91.122-91.122-91.122l-27.856 0v-149.897c0-17.317-14.050-31.368-31.368-31.368s-31.368 14.050-31.368 31.367zM637.565 442.244v-54.731h27.855c15.643 0 28.387 12.743 28.387 28.387v26.344h-56.242zM518.586 532.672v-27.692h56.242v56.078h-27.876c-15.643 0-28.366-12.743-28.366-28.387zM574.828 387.513v54.731h-56.242v-26.344c0-15.643 12.723-28.387 28.366-28.387h27.876z"  horiz-adv-x="1024" />

    
    <glyph glyph-name="yiyuandongtai" unicode="&#58929;" d="M961.496 544.268c-0.776-7.761-5.841-14.501-13.154-17.36l-69.687-27.327c-10.702-4.167-22.875 1.062-27.123 11.846-4.208 10.743 1.103 22.875 11.846 27.123l31.78 12.459-50.733 32.883c-5.841 3.799-9.395 10.293-9.518 17.238l-0.898 60.7-46.117-39.5c-5.31-4.493-12.459-6.168-19.239-4.248l-58.209 16.257 21.527-59.148c2.287-6.209 1.47-13.154-2.206-18.708l-34.844-52.53 58.943 4.779c7.19 0.49 14.134-2.533 18.464-8.292l35.375-47.343 3.39 12.662c3.064 11.152 14.624 17.483 25.611 14.828 11.192-3.023 17.81-14.46 14.828-25.611l-14.542-54.287c-2.083-7.761-8.415-13.644-16.257-15.154-1.348-0.246-2.655-0.367-3.962-0.367-6.536 0-12.744 3.064-16.747 8.374l-54.287 72.587-90.315-7.352c-7.802-0.531-15.645 3.308-19.729 10.212s-3.839 15.482 0.572 22.18l52.817 79.654-31.862 87.456c-2.696 7.352-1.021 15.604 4.289 21.364 5.351 5.759 13.357 8.047 20.996 5.923l86.679-24.182 71.443 61.191c6.168 5.269 14.705 6.454 22.221 3.187 7.352-3.349 12.173-10.662 12.295-18.749l1.43-94.074 75.528-48.976c6.579-4.292 10.214-11.889 9.397-19.69zM512.045 409.633c17.319 0 31.371 14.052 31.371 31.371v28.757h31.575c17.319 0 31.371 14.052 31.371 31.371s-14.052 31.371-31.371 31.371h-31.575v28.757c0 17.319-14.052 31.371-31.371 31.371-17.319 0-31.371-14.052-31.371-31.371v-28.757h-31.575c-17.319 0-31.371-14.052-31.371-31.371s14.052-31.371 31.371-31.371h31.575v-28.757c-0-17.32 14.052-31.371 31.371-31.371zM243.428 305.061h-41.829c-17.319 0-31.371-14.052-31.371-31.371s14.052-31.371 31.371-31.371h41.829c17.319 0 31.371 14.052 31.371 31.371s-14.052 31.371-31.371 31.371zM710.035 357.347v-324.17h-647.645v273.682c0 63.437 51.591 115.028 115.028 115.028h146.399l0 144.602c0 63.437 51.591 115.028 115.028 115.028h156.162c17.319 0 31.371-14.052 31.371-31.371s-14.052-31.371-31.371-31.371h-156.161c-28.839 0-52.286-23.447-52.286-52.286v-144.602h0.205v-325.967h260.529v261.428c0 17.319 14.052 31.371 31.371 31.371s31.37-14.052 31.37-31.371zM323.817 95.919v263.225h-146.399c-28.839 0-52.286-23.447-52.286-52.286v-210.939h198.685z"  horiz-adv-x="1024" />

    
    <glyph glyph-name="yiyuandongtaixuanze" unicode="&#58930;" d="M642.506 429.66c-20.021 0-37.187 9.786-45.872 26.218-6.264 11.802-6.963 25.362-2.816 38.348-0.229-0.008-0.418-0.133-0.65-0.133h-46.361v-43.252c0-12.749-10.316-23.066-23.065-23.066-12.752 0-23.068 10.316-23.068 23.066v43.252h-46.361c-12.749 0-23.065 10.316-23.065 23.066 0 12.752 10.316 23.068 23.065 23.068h46.361v43.252c0 12.749 10.316 23.066 23.068 23.066 12.749 0 23.065-10.316 23.065-23.066v-43.252h46.361c8.894 0 16.369-5.183 20.22-12.549l37.803 55.661-28.991 78.288c-2.301 6.534-3.066 13.079-3.066 19.5-1.325 0.056-2.568 0.395-3.907 0.395l-172.227-0c-50.747 0-92.27-41.519-92.27-92.268v-194.111l-196.072 0c-50.75 0-92.268-41.524-92.268-92.27v-267.233h645.108v398.472l-60.464-4.289c-0.979-0.082-3.507-0.164-4.527-0.164zM227.47 231.703h-46.135c-19.103 0-34.6 15.5-34.6 34.6 0 19.103 15.497 34.602 34.6 34.602h46.135c19.103 0 34.602-15.5 34.602-34.602-0-19.101-15.499-34.6-34.602-34.6zM953.513 539.915l-48.13-18.277c-9.968-3.785-25.833-10.118-35.255-14.074s-19.305-15.641-21.961-25.966l-4.706-18.291c-2.658-10.326-7.184-27.176-10.060-37.443l-7.821-27.928c-2.877-10.268-10.376-11.625-16.667-3.015l-49.816 68.177c-6.29 8.609-20.14 15.042-30.776 14.294l-84.231-5.922c-10.637-0.748-14.438 5.857-8.448 14.679l50.078 73.754c5.99 8.822 7.995 24.269 4.456 34.327l-28.591 81.264c-3.539 10.058 1.942 15.851 12.18 12.871l79.873-23.243c10.238-2.979 25.303 0.184 33.477 7.030l67.559 56.577c8.174 6.845 14.899 3.723 14.942-6.94l0.357-88.119c0.043-10.662 5.048-22.688 11.123-26.724 4.547-3.021 12.544-8.333 20.003-13.29l54.391-36.134c8.88-5.898 7.991-13.823-1.977-17.607z"  horiz-adv-x="1024" />

    
    <glyph glyph-name="zhenliaoqia" unicode="&#58931;" d="M907.741 515.923v32.651c0 24.76-20.13 44.89-44.89 44.89h-701.702c-24.76 0-44.89-20.13-44.89-44.89v-352.638c0-24.76 20.13-44.89 44.89-44.89h701.701c24.76 0 44.89 20.13 44.89 44.89v176.302c0 14.87 12.065 26.934 26.934 26.934s26.934-12.065 26.934-26.934v-176.301c0-54.465-44.295-98.76-98.76-98.76h-701.699c-54.465 0-98.76 44.295-98.76 98.76v352.638c0 54.465 44.295 98.76 98.76 98.76h701.701c54.465 0 98.76-44.295 98.76-98.76v-32.651c0-14.87-12.065-26.934-26.934-26.934s-26.934 12.064-26.934 26.933zM332.436 201.653c14.87 0 26.934 12.065 26.934 26.934v116.716h116.716c14.87 0 26.934 12.065 26.934 26.934s-12.065 26.934-26.934 26.934h-116.716v116.716c0 14.87-12.065 26.934-26.934 26.934s-26.934-12.065-26.934-26.934v-116.716h-116.716c-14.87 0-26.934-12.065-26.934-26.934s12.065-26.934 26.934-26.934h116.716v-116.716c0-14.87 12.065-26.934 26.934-26.934zM826.236 479.976c0 14.87-12.065 26.934-26.934 26.934h-215.477c-14.87 0-26.934-12.065-26.934-26.934s12.065-26.934 26.934-26.934h215.477c14.87 0 26.934 12.065 26.934 26.934zM583.825 291.435c-14.87 0-26.934-12.065-26.934-26.934s12.065-26.934 26.934-26.934h71.826c14.87 0 26.934 12.065 26.934 26.934s-12.065 26.934-26.934 26.934h-71.826zM754.411 372.238c0 14.87-12.065 26.934-26.934 26.934h-143.652c-14.87 0-26.934-12.065-26.934-26.934s12.065-26.934 26.934-26.934h143.651c14.871 0 26.935 12.065 26.935 26.934z"  horiz-adv-x="1024" />

    
    <glyph glyph-name="zhuyuanxuanzhong" unicode="&#58932;" d="M927.067 470.711c-19.070 0-34.542-15.472-34.542-34.542v-57.57h-388.69v57.57c0 69.849-56.806 126.655-126.655 126.655l-244.583 0v195.738c0 19.070-15.472 34.542-34.542 34.542s-34.542-15.472-34.542-34.542v-552.559l-1.125-34.657h1.125v-103.626c0-19.070 15.472-34.542 34.542-34.542s34.542 15.472 34.542 34.542v103.626h759.928v-103.626c0-19.070 15.472-34.542 34.542-34.542 19.070 0 34.542 15.472 34.542 34.542l-0 103.626v264.822c0.001 19.070-15.471 34.543-34.542 34.543z"  horiz-adv-x="1024" />

    
    <glyph glyph-name="chenggong" unicode="&#58933;" d="M731.104-8.34c-67.86-37.824-142.653-57.097-218.257-57.097-41.246 0-82.719 5.719-123.515 17.291-115.501 32.827-211.323 108.656-269.815 213.529s-72.632 226.272-39.807 341.773c32.782 115.546 108.656 211.368 213.529 269.86 184.8 102.892 419.493 61.96 558.048-97.533 12.518-14.454 10.987-36.294-3.422-48.812-14.454-12.473-36.249-10.942-48.812 3.422-117.257 134.953-315.79 169.67-472.132 82.494-88.752-49.487-152.92-130.585-180.703-228.299-27.738-97.758-15.76-200.471 33.727-289.223 49.442-88.752 130.539-152.92 228.299-180.658 97.713-27.783 200.471-15.76 289.178 33.682 156.342 87.131 231.225 274.274 178.045 445.025-5.673 18.192 4.503 37.599 22.74 43.274 18.372 5.718 37.644-4.548 43.274-22.74 62.906-201.777-25.577-423.006-210.377-525.988zM721.739 539.171l-236.401-236.361-105.957 105.956c-13.509 13.509-35.393 13.509-48.902 0-13.509-13.509-13.509-35.393 0-48.902l130.405-130.405c6.755-6.755 15.58-10.132 24.451-10.132s17.696 3.377 24.451 10.132l260.855 260.81c13.509 13.509 13.509 35.393 0 48.902-13.509 13.509-35.393 13.509-48.902-0z"  horiz-adv-x="1024" />

    
    </font>
</defs>
</svg>
